<svg width="21" height="20" viewBox="0 0 21 20" fill="none" xmlns="http://www.w3.org/2000/svg">
<path d="M13.8352 0C14.0878 0 14.3301 0.100346 14.5087 0.278963C14.6873 0.457579 14.7877 0.699836 14.7877 0.952438V1.90488H19.5502V7.61951H17.6271L20.2427 14.8047C20.4301 15.2883 20.5167 15.805 20.4973 16.3232C20.478 16.8415 20.353 17.3503 20.1301 17.8186C19.9071 18.2868 19.591 18.7046 19.2009 19.0464C18.8108 19.3881 18.3551 19.6467 17.8615 19.8062C17.368 19.9656 16.8472 20.0227 16.3308 19.9738C15.8145 19.9249 15.3136 19.7711 14.8588 19.5219C14.404 19.2726 14.0048 18.9332 13.6858 18.5243C13.3668 18.1154 13.1347 17.6456 13.0036 17.1439H8.95258C8.7361 17.9798 8.24218 18.7174 7.55171 19.236C6.86125 19.7546 6.01515 20.0234 5.15196 19.9984C4.28877 19.9734 3.45965 19.6561 2.80037 19.0984C2.14109 18.5407 1.69071 17.7757 1.523 16.9286C1.21432 16.7674 0.955743 16.5247 0.775383 16.2268C0.595022 15.9289 0.499777 15.5872 0.5 15.239V5.71463C0.5 5.46203 0.600354 5.21977 0.778984 5.04115C0.957615 4.86254 1.19989 4.76219 1.45251 4.76219H8.12009C8.37271 4.76219 8.61498 4.86254 8.79361 5.04115C8.97225 5.21977 9.0726 5.46203 9.0726 5.71463V10.4768C9.0726 10.7294 9.17295 10.9717 9.35158 11.1503C9.53021 11.3289 9.77249 11.4293 10.0251 11.4293H11.9301C12.1828 11.4293 12.425 11.3289 12.6037 11.1503C12.7823 10.9717 12.8826 10.7294 12.8826 10.4768V1.90488H10.0251V0H13.8352ZM5.26256 14.2866C4.75731 14.2866 4.27276 14.4873 3.9155 14.8445C3.55824 15.2017 3.35753 15.6862 3.35753 16.1915C3.35753 16.6967 3.55824 17.1812 3.9155 17.5384C4.27276 17.8956 4.75731 18.0963 5.26256 18.0963C5.7678 18.0963 6.25235 17.8956 6.60961 17.5384C6.96687 17.1812 7.16758 16.6967 7.16758 16.1915C7.16758 15.6862 6.96687 15.2017 6.60961 14.8445C6.25235 14.4873 5.7678 14.2866 5.26256 14.2866ZM16.6927 14.2856C16.2876 14.2857 15.893 14.415 15.5664 14.6546C15.2398 14.8942 14.998 15.2317 14.8763 15.6181C14.7545 16.0045 14.7592 16.4196 14.8894 16.8031C15.0197 17.1867 15.2689 17.5187 15.6008 17.751C15.9327 17.9833 16.33 18.1038 16.735 18.0949C17.14 18.086 17.5317 17.9483 17.8531 17.7017C18.1744 17.455 18.4088 17.1124 18.5222 16.7235C18.6355 16.3346 18.622 15.9197 18.4834 15.539L18.4682 15.4971C18.3284 15.1401 18.0842 14.8336 17.7674 14.6176C17.4507 14.4016 17.0761 14.2863 16.6927 14.2866V14.2856ZM15.6002 7.61951H14.7877V10.4768C14.7877 11.2346 14.4866 11.9614 13.9507 12.4972C13.4148 13.0331 12.688 13.3341 11.9301 13.3341H10.0251C9.26724 13.3341 8.54042 13.0331 8.00453 12.4972C7.46864 11.9614 7.16758 11.2346 7.16758 10.4768H2.40502V13.6713C2.86303 13.1527 3.45356 12.7685 4.1133 12.56C4.77304 12.3514 5.4771 12.3264 6.15 12.4875C6.8229 12.6486 7.43925 12.9898 7.93297 13.4746C8.42669 13.9593 8.77916 14.5692 8.95258 15.239H13.0027C13.2427 14.3106 13.8238 13.5067 14.6303 12.9877C15.4367 12.4687 16.4092 12.2727 17.3537 12.4388L15.6002 7.61951ZM7.16758 6.66707H2.40502V8.57194H7.16758V6.66707ZM17.6452 3.80975H14.7877V5.71463H17.6452V3.80975Z" fill="#333333"/>
</svg>
