<svg width="80" height="80" viewBox="0 0 80 80" fill="none" xmlns="http://www.w3.org/2000/svg">
<g clip-path="url(#clip0_196_957)">
<path d="M27.5818 1.81417C27.5818 2.07104 27.4855 2.29581 27.3089 2.48846C27.1162 2.68112 26.9075 2.76139 26.6346 2.76139H25.7676C25.5107 2.76139 25.286 2.66506 25.0933 2.48846C24.9007 2.29581 24.8204 2.0871 24.8204 1.81417V0.947221C24.8204 0.690347 24.9167 0.465583 25.0933 0.272928C25.286 0.0802729 25.4947 0 25.7676 0H26.6346C26.8914 0 27.1162 0.0963275 27.3089 0.272928C27.5015 0.465583 27.5818 0.674293 27.5818 0.947221V1.81417Z" fill="#333333"/>
<path d="M33.1046 0.947221V0H31.2904C31.0335 0 30.8088 0.0963275 30.6161 0.272928C30.4235 0.465583 30.3432 0.674293 30.3432 0.947221V1.81417C30.3432 2.07104 30.4395 2.29581 30.6161 2.48846C30.8088 2.68112 31.0175 2.76139 31.2904 2.76139H33.1046V0.947221Z" fill="#333333"/>
<path d="M35.8659 0H33.1045V2.76139H35.8659V0Z" fill="#333333"/>
<path d="M37.6801 0H35.866V2.76139H37.6801C37.937 2.76139 38.1618 2.66506 38.3544 2.48846C38.5471 2.29581 38.6274 2.0871 38.6274 1.81417V0.947221C38.6274 0.690347 38.531 0.465583 38.3544 0.272928C38.1618 0.0802729 37.9531 0 37.6801 0Z" fill="#333333"/>
<path d="M44.134 1.81417C44.134 2.07104 44.0377 2.29581 43.8611 2.48846C43.6685 2.68112 43.4597 2.76139 43.1868 2.76139H42.3199C42.063 2.76139 41.8382 2.66506 41.6456 2.48846C41.4529 2.29581 41.3727 2.0871 41.3727 1.81417V0.947221C41.3727 0.690347 41.469 0.465583 41.6456 0.272928C41.8382 0.0802729 42.0469 0 42.3199 0H43.1868C43.4437 0 43.6685 0.0963275 43.8611 0.272928C44.0538 0.465583 44.134 0.674293 44.134 0.947221V1.81417Z" fill="#333333"/>
<path d="M49.6568 1.81417C49.6568 2.07104 49.5605 2.29581 49.3839 2.48846C49.1912 2.68112 48.9825 2.76139 48.7096 2.76139H47.8427C47.5858 2.76139 47.361 2.66506 47.1684 2.48846C46.9757 2.29581 46.8954 2.0871 46.8954 1.81417V0.947221C46.8954 0.690347 46.9918 0.465583 47.1684 0.272928C47.361 0.0802729 47.5697 0 47.8427 0H48.7096C48.9665 0 49.1912 0.0963275 49.3839 0.272928C49.5766 0.465583 49.6568 0.674293 49.6568 0.947221V1.81417Z" fill="#333333"/>
<path d="M35.8659 2.7619H33.1045V5.52329H35.8659V2.7619Z" fill="#333333"/>
<path d="M41.3727 4.57607C41.3727 4.83294 41.2764 5.05771 41.0998 5.25036C40.9071 5.44302 40.6984 5.52329 40.4255 5.52329H39.5585C39.3016 5.52329 39.0769 5.42696 38.8842 5.25036C38.6916 5.05771 38.6113 4.849 38.6113 4.57607V3.70912C38.6113 3.45225 38.7076 3.22748 38.8842 3.03483C39.0769 2.84217 39.2856 2.7619 39.5585 2.7619H40.4255C40.6823 2.7619 40.9071 2.85823 41.0998 3.03483C41.2924 3.22748 41.3727 3.43619 41.3727 3.70912V4.57607Z" fill="#333333"/>
<path d="M52.4183 3.70912C52.4183 3.45225 52.3219 3.22748 52.1453 3.03483C51.9527 2.84217 51.744 2.7619 51.471 2.7619H50.6041C50.3472 2.7619 50.1225 2.85823 49.9298 3.03483C49.7371 3.22748 49.6569 3.43619 49.6569 3.70912V4.57607C49.6569 4.57607 49.6569 4.60818 49.6569 4.64029V5.52329H52.4183V4.64029C52.4183 4.64029 52.4183 4.59212 52.4183 4.57607V3.70912Z" fill="#333333"/>
<path d="M27.5818 6.47112V5.5239H25.7676C25.5107 5.5239 25.286 5.62022 25.0933 5.79682C24.9007 5.98948 24.8204 6.19819 24.8204 6.47112V8.28528H27.5818V6.47112Z" fill="#333333"/>
<path d="M30.3432 5.5239H27.5818V8.28528H30.3432V5.5239Z" fill="#333333"/>
<path d="M33.1046 5.5239H30.3432V8.28528H33.1046V5.5239Z" fill="#333333"/>
<path d="M35.8659 5.5239H33.1045V8.28528H35.8659V5.5239Z" fill="#333333"/>
<path d="M46.8954 6.47112C46.8954 6.21424 46.7991 5.98948 46.6225 5.79682C46.4298 5.60417 46.2211 5.5239 45.9482 5.5239H45.0812C44.8244 5.5239 44.5996 5.62022 44.4069 5.79682C44.2143 5.98948 44.134 6.19819 44.134 6.47112V7.33806C44.134 7.33806 44.134 7.37017 44.134 7.40228V8.28528H46.8954V7.40228C46.8954 7.40228 46.8954 7.35412 46.8954 7.33806V6.47112Z" fill="#333333"/>
<path d="M52.4183 5.5239H49.6569V7.33806C49.6569 7.59494 49.7532 7.8197 49.9298 8.01236C50.1225 8.20501 50.3312 8.28528 50.6041 8.28528H52.4183V5.5239Z" fill="#333333"/>
<path d="M54.2163 5.5239H52.4021V8.28528H54.2163C54.4732 8.28528 54.6979 8.18896 54.8906 8.01236C55.0832 7.8197 55.1635 7.61099 55.1635 7.33806V6.47112C55.1635 6.21424 55.0672 5.98948 54.8906 5.79682C54.6979 5.60417 54.4892 5.5239 54.2163 5.5239Z" fill="#333333"/>
<path d="M27.5818 8.28581H24.8204V10.1C24.8204 10.3569 24.9167 10.5816 25.0933 10.7743C25.286 10.9669 25.4947 11.0472 25.7676 11.0472H27.5818V8.28581Z" fill="#333333"/>
<path d="M30.3432 8.28581H27.5818V11.0472H29.396C29.6529 11.0472 29.8776 10.9509 30.0703 10.7743C30.2629 10.5816 30.3432 10.3729 30.3432 10.1V8.28581Z" fill="#333333"/>
<path d="M35.8499 9.16881V8.28581H33.0885V9.16881C33.0885 9.16881 33.0885 9.21698 33.0885 9.23303V10.1C33.0885 10.3569 33.1848 10.5816 33.3614 10.7743C33.5541 10.9669 33.7628 11.0472 34.0357 11.0472H34.9027C35.1596 11.0472 35.3843 10.9509 35.577 10.7743C35.7696 10.5816 35.8499 10.3729 35.8499 10.1V9.23303C35.8499 9.23303 35.8499 9.20092 35.8499 9.16881Z" fill="#333333"/>
<path d="M41.3727 9.23303C41.3727 8.97616 41.2764 8.7514 41.0998 8.55874C40.9071 8.36609 40.6984 8.28581 40.4255 8.28581H39.5585C39.3016 8.28581 39.0769 8.38214 38.8842 8.55874C38.6916 8.7514 38.6113 8.96011 38.6113 9.23303V10.1C38.6113 10.1 38.6113 10.1321 38.6113 10.1642V11.0472H41.3727V10.1642C41.3727 10.1642 41.3727 10.116 41.3727 10.1V9.23303Z" fill="#333333"/>
<path d="M46.8954 8.28581H44.134V11.0472H46.8954V8.28581Z" fill="#333333"/>
<path d="M48.7096 8.28581H46.8954V11.0472H48.7096C48.9665 11.0472 49.1912 10.9509 49.3839 10.7743C49.5766 10.5816 49.6568 10.3729 49.6568 10.1V9.23303C49.6568 8.97616 49.5605 8.7514 49.3839 8.55874C49.1912 8.36609 48.9825 8.28581 48.7096 8.28581Z" fill="#333333"/>
<path d="M24.8364 12.8459C24.8364 13.1027 24.7401 13.3275 24.5635 13.5202C24.3709 13.7128 24.1622 13.7931 23.8892 13.7931H23.0223C22.7654 13.7931 22.5406 13.6968 22.348 13.5202C22.1553 13.3275 22.0751 13.1188 22.0751 12.8459V11.9789C22.0751 11.722 22.1714 11.4973 22.348 11.3046C22.5406 11.112 22.7494 11.0317 23.0223 11.0317H23.8892C24.1461 11.0317 24.3709 11.128 24.5635 11.3046C24.7562 11.4973 24.8364 11.706 24.8364 11.9789V12.8459Z" fill="#333333"/>
<path d="M41.3727 11.9147V11.0317H38.6113V11.9147C38.6113 11.9147 38.6113 11.9629 38.6113 11.9789V12.8459C38.6113 13.1027 38.7076 13.3275 38.8842 13.5202C39.0769 13.7128 39.2856 13.7931 39.5585 13.7931H40.4255C40.6823 13.7931 40.9071 13.6968 41.0998 13.5202C41.2924 13.3275 41.3727 13.1188 41.3727 12.8459V11.9789C41.3727 11.9789 41.3727 11.9468 41.3727 11.9147Z" fill="#333333"/>
<path d="M46.8954 11.9147V11.0317H44.134V11.9147C44.134 11.9147 44.134 11.9629 44.134 11.9789V12.8459C44.134 13.1027 44.2303 13.3275 44.4069 13.5202C44.5996 13.7128 44.8083 13.7931 45.0812 13.7931H45.9482C46.205 13.7931 46.4298 13.6968 46.6225 13.5202C46.8151 13.3275 46.8954 13.1188 46.8954 12.8459V11.9789C46.8954 11.9789 46.8954 11.9468 46.8954 11.9147Z" fill="#333333"/>
<path d="M52.4183 11.9789V11.0317H50.6041C50.3472 11.0317 50.1225 11.128 49.9298 11.3046C49.7371 11.4973 49.6569 11.706 49.6569 11.9789V13.7931H52.4183V11.9789Z" fill="#333333"/>
<path d="M55.1635 11.9789C55.1635 11.722 55.0672 11.4973 54.8906 11.3046C54.6979 11.112 54.4892 11.0317 54.2163 11.0317H52.4021V13.7931H55.1635V11.9789Z" fill="#333333"/>
<path d="M30.3432 14.7409V13.7937H28.5291C28.2722 13.7937 28.0474 13.89 27.8548 14.0666C27.6621 14.2593 27.5818 14.468 27.5818 14.7409V16.5551H30.3432V14.7409Z" fill="#333333"/>
<path d="M32.1574 13.7937H30.3432V16.5551H32.1574C32.4142 16.5551 32.639 16.4587 32.8316 16.2821C33.0243 16.0895 33.1046 15.8808 33.1046 15.6079V14.7409C33.1046 14.484 33.0082 14.2593 32.8316 14.0666C32.639 13.874 32.4303 13.7937 32.1574 13.7937Z" fill="#333333"/>
<path d="M38.6274 15.6079C38.6274 15.8647 38.531 16.0895 38.3544 16.2821C38.1618 16.4748 37.9531 16.5551 37.6801 16.5551H36.8132C36.5563 16.5551 36.3315 16.4587 36.1389 16.2821C35.9462 16.0895 35.866 15.8808 35.866 15.6079V14.7409C35.866 14.484 35.9623 14.2593 36.1389 14.0666C36.3315 13.874 36.5403 13.7937 36.8132 13.7937H37.6801C37.937 13.7937 38.1618 13.89 38.3544 14.0666C38.5471 14.2593 38.6274 14.468 38.6274 14.7409V15.6079Z" fill="#333333"/>
<path d="M49.6568 14.7409V13.7937H47.8427C47.5858 13.7937 47.361 13.89 47.1684 14.0666C46.9757 14.2593 46.8954 14.468 46.8954 14.7409V15.6079C46.8954 15.8647 46.9918 16.0895 47.1684 16.2821C47.361 16.4748 47.5697 16.5551 47.8427 16.5551H49.6568V14.7409Z" fill="#333333"/>
<path d="M52.4183 13.7937H49.6569V16.5551H52.4183V13.7937Z" fill="#333333"/>
<path d="M55.1635 13.7937H52.4021V16.5551H54.2163C54.4732 16.5551 54.6979 16.4587 54.8906 16.2821C55.0832 16.0895 55.1635 15.8808 55.1635 15.6079V13.7937Z" fill="#333333"/>
<path d="M24.8364 17.5028C24.8364 17.2459 24.7401 17.0212 24.5635 16.8285C24.3709 16.6359 24.1622 16.5556 23.8892 16.5556H23.0223C22.7654 16.5556 22.5406 16.6519 22.348 16.8285C22.1553 17.0212 22.0751 17.2299 22.0751 17.5028V18.3698C22.0751 18.3698 22.0751 18.4019 22.0751 18.434V19.317H24.8364V18.434C24.8364 18.434 24.8364 18.3858 24.8364 18.3698V17.5028Z" fill="#333333"/>
<path d="M30.3432 17.4386V16.5556H27.5818V17.4386C27.5818 17.4386 27.5818 17.4868 27.5818 17.5028V18.3698C27.5818 18.6266 27.6782 18.8514 27.8548 19.044C28.0474 19.2367 28.2561 19.317 28.5291 19.317H29.396C29.6529 19.317 29.8776 19.2206 30.0703 19.044C30.2629 18.8514 30.3432 18.6427 30.3432 18.3698V17.5028C30.3432 17.5028 30.3432 17.4707 30.3432 17.4386Z" fill="#333333"/>
<path d="M35.8659 17.5028C35.8659 17.2459 35.7696 17.0212 35.593 16.8285C35.4003 16.6359 35.1916 16.5556 34.9187 16.5556H34.0517C33.7949 16.5556 33.5701 16.6519 33.3775 16.8285C33.1848 17.0212 33.1045 17.2299 33.1045 17.5028V18.3698C33.1045 18.3698 33.1045 18.4019 33.1045 18.434V19.317H35.8659V18.434C35.8659 18.434 35.8659 18.3858 35.8659 18.3698V17.5028Z" fill="#333333"/>
<path d="M41.3727 18.3698C41.3727 18.6266 41.2764 18.8514 41.0998 19.044C40.9071 19.2367 40.6984 19.317 40.4255 19.317H39.5585C39.3016 19.317 39.0769 19.2206 38.8842 19.044C38.6916 18.8514 38.6113 18.6427 38.6113 18.3698V17.5028C38.6113 17.2459 38.7076 17.0212 38.8842 16.8285C39.0769 16.6359 39.2856 16.5556 39.5585 16.5556H40.4255C40.6823 16.5556 40.9071 16.6519 41.0998 16.8285C41.2924 17.0212 41.3727 17.2299 41.3727 17.5028V18.3698Z" fill="#333333"/>
<path d="M46.8954 17.5028C46.8954 17.2459 46.7991 17.0212 46.6225 16.8285C46.4298 16.6359 46.2211 16.5556 45.9482 16.5556H45.0812C44.8244 16.5556 44.5996 16.6519 44.4069 16.8285C44.2143 17.0212 44.134 17.2299 44.134 17.5028V18.3698C44.134 18.3698 44.134 18.4019 44.134 18.434V19.317H46.8954V18.434C46.8954 18.434 46.8954 18.3858 46.8954 18.3698V17.5028Z" fill="#333333"/>
<path d="M52.4022 17.4386V16.5556H49.6408V17.4386C49.6408 17.4386 49.6408 17.4868 49.6408 17.5028V18.3698C49.6408 18.6266 49.7371 18.8514 49.9137 19.044C50.1064 19.2367 50.3151 19.317 50.588 19.317H51.4549C51.7118 19.317 51.9366 19.2206 52.1292 19.044C52.3219 18.8514 52.4022 18.6427 52.4022 18.3698V17.5028C52.4022 17.5028 52.4022 17.4707 52.4022 17.4386Z" fill="#333333"/>
<path d="M57.9249 18.3698C57.9249 18.6266 57.8286 18.8514 57.652 19.044C57.4594 19.2367 57.2507 19.317 56.9777 19.317H56.1108C55.8539 19.317 55.6291 19.2206 55.4365 19.044C55.2438 18.8514 55.1636 18.6427 55.1636 18.3698V17.5028C55.1636 17.2459 55.2599 17.0212 55.4365 16.8285C55.6291 16.6359 55.8379 16.5556 56.1108 16.5556H56.9777C57.2346 16.5556 57.4594 16.6519 57.652 16.8285C57.8447 17.0212 57.9249 17.2299 57.9249 17.5028V18.3698Z" fill="#333333"/>
<path d="M24.8364 19.3176H22.0751V22.079H24.8364V19.3176Z" fill="#333333"/>
<path d="M35.8659 19.3176H33.1045V22.079H35.8659V19.3176Z" fill="#333333"/>
<path d="M37.6801 19.3176H35.866V22.079H37.6801C37.937 22.079 38.1618 21.9826 38.3544 21.806C38.5471 21.6134 38.6274 21.4047 38.6274 21.1317V20.2648C38.6274 20.0079 38.531 19.7832 38.3544 19.5905C38.1618 19.3979 37.9531 19.3176 37.6801 19.3176Z" fill="#333333"/>
<path d="M46.8954 20.2006V19.3176H44.134V20.2006C44.134 20.2006 44.134 20.2487 44.134 20.2648V21.1317C44.134 21.3886 44.2303 21.6134 44.4069 21.806C44.5996 21.9987 44.8083 22.079 45.0812 22.079H45.9482C46.205 22.079 46.4298 21.9826 46.6225 21.806C46.8151 21.6134 46.8954 21.4047 46.8954 21.1317V20.2648C46.8954 20.2648 46.8954 20.2327 46.8954 20.2006Z" fill="#333333"/>
<path d="M8.28423 23.0267V22.0795H6.47006C6.21319 22.0795 5.98843 22.1758 5.79577 22.3524C5.60312 22.5451 5.52284 22.7538 5.52284 23.0267V24.8409H8.28423V23.0267Z" fill="#333333"/>
<path d="M11.0455 23.0267C11.0455 22.7698 10.9492 22.5451 10.7726 22.3524C10.58 22.1598 10.3712 22.0795 10.0983 22.0795H8.28415V24.8409H11.0455V23.0267Z" fill="#333333"/>
<path d="M19.3137 23.0267V22.0795H17.4995C17.2426 22.0795 17.0179 22.1758 16.8252 22.3524C16.6325 22.5451 16.5523 22.7538 16.5523 23.0267V23.8937C16.5523 24.1505 16.6486 24.3753 16.8252 24.5679C17.0179 24.7606 17.2266 24.8409 17.4995 24.8409H19.3137V23.0267Z" fill="#333333"/>
<path d="M22.0751 22.0795H19.3137V24.8409H22.0751V22.0795Z" fill="#333333"/>
<path d="M24.8364 22.0795H22.0751V24.8409H24.8364V22.0795Z" fill="#333333"/>
<path d="M27.5818 23.0267C27.5818 22.7698 27.4855 22.5451 27.3089 22.3524C27.1162 22.1598 26.9075 22.0795 26.6346 22.0795H24.8204V24.8409H27.5818V23.0267Z" fill="#333333"/>
<path d="M33.1046 23.0267V22.0795H31.2904C31.0335 22.0795 30.8088 22.1758 30.6161 22.3524C30.4235 22.5451 30.3432 22.7538 30.3432 23.0267V23.8937C30.3432 24.1505 30.4395 24.3753 30.6161 24.5679C30.8088 24.7606 31.0175 24.8409 31.2904 24.8409H33.1046V23.0267Z" fill="#333333"/>
<path d="M35.8659 22.0795H33.1045V24.8409H35.8659V22.0795Z" fill="#333333"/>
<path d="M52.4183 23.0267V22.0795H50.6041C50.3472 22.0795 50.1225 22.1758 49.9298 22.3524C49.7371 22.5451 49.6569 22.7538 49.6569 23.0267V24.8409H52.4183V23.0267Z" fill="#333333"/>
<path d="M54.2163 22.0795H52.4021V24.8409H54.2163C54.4732 24.8409 54.6979 24.7445 54.8906 24.5679C55.0832 24.3753 55.1635 24.1666 55.1635 23.8937V23.0267C55.1635 22.7698 55.0672 22.5451 54.8906 22.3524C54.6979 22.1598 54.4892 22.0795 54.2163 22.0795Z" fill="#333333"/>
<path d="M60.6864 23.0267V22.0795H58.8722C58.6153 22.0795 58.3906 22.1758 58.1979 22.3524C58.0053 22.5451 57.925 22.7538 57.925 23.0267V24.8409H60.6864V23.0267Z" fill="#333333"/>
<path d="M63.4477 23.0267C63.4477 22.7698 63.3514 22.5451 63.1748 22.3524C62.9822 22.1598 62.7735 22.0795 62.5005 22.0795H60.6864V24.8409H63.4477V23.0267Z" fill="#333333"/>
<path d="M68.9545 23.0267C68.9545 22.7698 68.8582 22.5451 68.6816 22.3524C68.4889 22.1598 68.2802 22.0795 68.0073 22.0795H67.1404C66.8835 22.0795 66.6587 22.1758 66.4661 22.3524C66.2734 22.5451 66.1931 22.7538 66.1931 23.0267V23.8937C66.1931 23.8937 66.1931 23.9258 66.1931 23.9579V24.8409H68.9545V23.9579C68.9545 23.9579 68.9545 23.9097 68.9545 23.8937V23.0267Z" fill="#333333"/>
<path d="M2.7614 25.7726V24.8254H0.947236C0.690362 24.8254 0.465598 24.9217 0.272943 25.0983C0.0802882 25.291 1.52588e-05 25.4997 1.52588e-05 25.7726V27.5868H2.7614V25.7726Z" fill="#333333"/>
<path d="M5.52279 24.8254H2.7614V27.5868H5.52279V24.8254Z" fill="#333333"/>
<path d="M8.28423 24.8254H5.52284V27.5868H8.28423V24.8254Z" fill="#333333"/>
<path d="M11.0455 24.8254H8.28415V27.5868H10.0983C10.3552 27.5868 10.58 27.4904 10.7726 27.3138C10.9653 27.1212 11.0455 26.9125 11.0455 26.6395V24.8254Z" fill="#333333"/>
<path d="M16.5522 25.7726C16.5522 25.5157 16.4559 25.291 16.2793 25.0983C16.0866 24.9057 15.8779 24.8254 15.605 24.8254H14.7381C14.4812 24.8254 14.2564 24.9217 14.0638 25.0983C13.8711 25.291 13.7908 25.4997 13.7908 25.7726V26.6395C13.7908 26.6395 13.7908 26.6717 13.7908 26.7038V27.5868H16.5522V26.7038C16.5522 26.7038 16.5522 26.6556 16.5522 26.6395V25.7726Z" fill="#333333"/>
<path d="M22.059 25.7084V24.8254H19.2976V25.7084C19.2976 25.7084 19.2976 25.7565 19.2976 25.7726V26.6395C19.2976 26.8964 19.3939 27.1212 19.5705 27.3138C19.7632 27.5065 19.9719 27.5868 20.2448 27.5868H21.1118C21.3686 27.5868 21.5934 27.4904 21.7861 27.3138C21.9787 27.1212 22.059 26.9125 22.059 26.6395V25.7726C22.059 25.7726 22.059 25.7405 22.059 25.7084Z" fill="#333333"/>
<path d="M27.5818 25.7084V24.8254H24.8204V25.7084C24.8204 25.7084 24.8204 25.7565 24.8204 25.7726V26.6395C24.8204 26.8964 24.9167 27.1212 25.0933 27.3138C25.286 27.5065 25.4947 27.5868 25.7676 27.5868H26.6346C26.8914 27.5868 27.1162 27.4904 27.3089 27.3138C27.5015 27.1212 27.5818 26.9125 27.5818 26.6395V25.7726C27.5818 25.7726 27.5818 25.7405 27.5818 25.7084Z" fill="#333333"/>
<path d="M35.8659 24.8254H33.1045V26.6395C33.1045 26.8964 33.2009 27.1212 33.3775 27.3138C33.5701 27.5065 33.7788 27.5868 34.0517 27.5868H35.8659V24.8254Z" fill="#333333"/>
<path d="M37.6801 24.8254H35.866V27.5868H37.6801C37.937 27.5868 38.1618 27.4904 38.3544 27.3138C38.5471 27.1212 38.6274 26.9125 38.6274 26.6395V25.7726C38.6274 25.5157 38.531 25.291 38.3544 25.0983C38.1618 24.9057 37.9531 24.8254 37.6801 24.8254Z" fill="#333333"/>
<path d="M46.8954 26.6395C46.8954 26.8964 46.7991 27.1212 46.6225 27.3138C46.4298 27.5065 46.2211 27.5868 45.9482 27.5868H45.0812C44.8244 27.5868 44.5996 27.4904 44.4069 27.3138C44.2143 27.1212 44.134 26.9125 44.134 26.6395V25.7726C44.134 25.5157 44.2303 25.291 44.4069 25.0983C44.5996 24.9057 44.8083 24.8254 45.0812 24.8254H45.9482C46.205 24.8254 46.4298 24.9217 46.6225 25.0983C46.8151 25.291 46.8954 25.4997 46.8954 25.7726V26.6395Z" fill="#333333"/>
<path d="M52.4022 25.7084V24.8254H49.6408V25.7084C49.6408 25.7084 49.6408 25.7565 49.6408 25.7726V26.6395C49.6408 26.8964 49.7371 27.1212 49.9137 27.3138C50.1064 27.5065 50.3151 27.5868 50.588 27.5868H51.4549C51.7118 27.5868 51.9366 27.4904 52.1292 27.3138C52.3219 27.1212 52.4022 26.9125 52.4022 26.6395V25.7726C52.4022 25.7726 52.4022 25.7405 52.4022 25.7084Z" fill="#333333"/>
<path d="M57.9249 25.7726V24.8254H56.1108C55.8539 24.8254 55.6291 24.9217 55.4365 25.0983C55.2438 25.291 55.1636 25.4997 55.1636 25.7726V27.5868H57.9249V25.7726Z" fill="#333333"/>
<path d="M60.6864 24.8254H57.925V27.5868H60.6864V24.8254Z" fill="#333333"/>
<path d="M63.4477 24.8254H60.6864V27.5868H63.4477V24.8254Z" fill="#333333"/>
<path d="M66.2091 24.8254H63.4477V27.5868H66.2091V24.8254Z" fill="#333333"/>
<path d="M68.9705 24.8254H66.2091V27.5868H68.9705V24.8254Z" fill="#333333"/>
<path d="M71.7158 25.7726C71.7158 25.5157 71.6195 25.291 71.4429 25.0983C71.2502 24.9057 71.0415 24.8254 70.7686 24.8254H68.9544V27.5868H71.7158V25.7726Z" fill="#333333"/>
<path d="M80 26.6395C80 26.8964 79.9037 27.1212 79.7271 27.3138C79.5344 27.5065 79.3257 27.5868 79.0528 27.5868H78.1858C77.929 27.5868 77.7042 27.4904 77.5115 27.3138C77.3189 27.1212 77.2386 26.9125 77.2386 26.6395V25.7726C77.2386 25.5157 77.3349 25.291 77.5115 25.0983C77.7042 24.9057 77.9129 24.8254 78.1858 24.8254H79.0528C79.3097 24.8254 79.5344 24.9217 79.7271 25.0983C79.9197 25.291 80 25.4997 80 25.7726V26.6395Z" fill="#333333"/>
<path d="M2.7614 27.5874H1.52588e-05V30.3488H2.7614V27.5874Z" fill="#333333"/>
<path d="M8.26809 28.4704V27.5874H5.5067V28.4704C5.5067 28.4704 5.5067 28.5185 5.5067 28.5346V29.4015C5.5067 29.6584 5.60303 29.8832 5.77963 30.0758C5.97228 30.2685 6.18099 30.3488 6.45392 30.3488H7.32087C7.57774 30.3488 7.8025 30.2524 7.99516 30.0758C8.18781 29.8832 8.26809 29.6745 8.26809 29.4015V28.5346C8.26809 28.5346 8.26809 28.5025 8.26809 28.4704Z" fill="#333333"/>
<path d="M13.791 28.5346V27.5874H11.9768C11.7199 27.5874 11.4952 27.6837 11.3025 27.8603C11.1098 28.053 11.0296 28.2617 11.0296 28.5346V30.3488H13.791V28.5346Z" fill="#333333"/>
<path d="M16.5522 27.5874H13.7908V30.3488H16.5522V27.5874Z" fill="#333333"/>
<path d="M18.3664 27.5874H16.5523V30.3488H18.3664C18.6233 30.3488 18.8481 30.2524 19.0407 30.0758C19.2334 29.8832 19.3137 29.6745 19.3137 29.4015V28.5346C19.3137 28.2777 19.2173 28.053 19.0407 27.8603C18.8481 27.6676 18.6394 27.5874 18.3664 27.5874Z" fill="#333333"/>
<path d="M24.8364 29.4015C24.8364 29.6584 24.7401 29.8832 24.5635 30.0758C24.3709 30.2685 24.1622 30.3488 23.8892 30.3488H23.0223C22.7654 30.3488 22.5406 30.2524 22.348 30.0758C22.1553 29.8832 22.0751 29.6745 22.0751 29.4015V28.5346C22.0751 28.2777 22.1714 28.053 22.348 27.8603C22.5406 27.6676 22.7494 27.5874 23.0223 27.5874H23.8892C24.1461 27.5874 24.3709 27.6837 24.5635 27.8603C24.7562 28.053 24.8364 28.2617 24.8364 28.5346V29.4015Z" fill="#333333"/>
<path d="M55.1635 28.5346V27.5874H53.3493C53.0925 27.5874 52.8677 27.6837 52.6751 27.8603C52.4824 28.053 52.4021 28.2617 52.4021 28.5346V29.4015C52.4021 29.6584 52.4985 29.8832 52.6751 30.0758C52.8677 30.2685 53.0764 30.3488 53.3493 30.3488H55.1635V28.5346Z" fill="#333333"/>
<path d="M57.9249 27.5874H55.1636V30.3488H57.9249V27.5874Z" fill="#333333"/>
<path d="M63.4316 28.4704V27.5874H60.6702V28.4704C60.6702 28.4704 60.6702 28.5185 60.6702 28.5346V29.4015C60.6702 29.6584 60.7666 29.8832 60.9432 30.0758C61.1358 30.2685 61.3445 30.3488 61.6175 30.3488H62.4844C62.7413 30.3488 62.9661 30.2524 63.1587 30.0758C63.3514 29.8832 63.4316 29.6745 63.4316 29.4015V28.5346C63.4316 28.5346 63.4316 28.5025 63.4316 28.4704Z" fill="#333333"/>
<path d="M68.9705 27.5874H66.2091V30.3488H68.9705V27.5874Z" fill="#333333"/>
<path d="M71.7158 27.5874H68.9544V30.3488H71.7158V27.5874Z" fill="#333333"/>
<path d="M74.4772 27.5874H71.7158V30.3488H74.4772V27.5874Z" fill="#333333"/>
<path d="M76.2914 27.5874H74.4773V30.3488H76.2914C76.5483 30.3488 76.7731 30.2524 76.9657 30.0758C77.1584 29.8832 77.2387 29.6745 77.2387 29.4015V28.5346C77.2387 28.2777 77.1423 28.053 76.9657 27.8603C76.7731 27.6676 76.5644 27.5874 76.2914 27.5874Z" fill="#333333"/>
<path d="M2.7614 30.3493H1.52588e-05V32.1634C1.52588e-05 32.4203 0.0963428 32.6451 0.272943 32.8377C0.465598 33.0304 0.674308 33.1107 0.947236 33.1107H2.7614V30.3493Z" fill="#333333"/>
<path d="M4.57557 30.3493H2.7614V33.1107H4.57557C4.83244 33.1107 5.0572 33.0143 5.24986 32.8377C5.44251 32.6451 5.52279 32.4364 5.52279 32.1634V31.2965C5.52279 31.0396 5.42646 30.8149 5.24986 30.6222C5.0572 30.4295 4.84849 30.3493 4.57557 30.3493Z" fill="#333333"/>
<path d="M13.807 30.3493H11.0456V33.1107H13.807V30.3493Z" fill="#333333"/>
<path d="M57.9249 30.3493H55.1636V33.1107H57.9249V30.3493Z" fill="#333333"/>
<path d="M66.2091 31.2965V30.3493H64.3949C64.138 30.3493 63.9133 30.4456 63.7206 30.6222C63.528 30.8149 63.4477 31.0236 63.4477 31.2965V33.1107H66.2091V31.2965Z" fill="#333333"/>
<path d="M68.9545 30.3493H66.1931V33.1107H68.0073C68.2642 33.1107 68.4889 33.0143 68.6816 32.8377C68.8742 32.6451 68.9545 32.4364 68.9545 32.1634V30.3493Z" fill="#333333"/>
<path d="M80 31.2965C80 31.0396 79.9037 30.8149 79.7271 30.6222C79.5344 30.4295 79.3257 30.3493 79.0528 30.3493H78.1858C77.929 30.3493 77.7042 30.4456 77.5115 30.6222C77.3189 30.8149 77.2386 31.0236 77.2386 31.2965V32.1634C77.2386 32.1634 77.2386 32.1956 77.2386 32.2277V33.1107H80V32.2277C80 32.2277 80 32.1795 80 32.1634V31.2965Z" fill="#333333"/>
<path d="M13.807 33.1112H11.0456V35.8726H13.807V33.1112Z" fill="#333333"/>
<path d="M16.5522 33.1112H13.7908V35.8726H16.5522V33.1112Z" fill="#333333"/>
<path d="M19.3137 33.1112H16.5523V35.8726H19.3137V33.1112Z" fill="#333333"/>
<path d="M22.0751 34.0584C22.0751 33.8015 21.9788 33.5768 21.8022 33.3841C21.6095 33.1914 21.4008 33.1112 21.1279 33.1112H19.3137V35.8726H22.0751V34.0584Z" fill="#333333"/>
<path d="M27.5818 34.9093C27.5818 35.1662 27.4855 35.391 27.3089 35.5836C27.1162 35.7763 26.9075 35.8565 26.6346 35.8565H25.7676C25.5107 35.8565 25.286 35.7602 25.0933 35.5836C24.9007 35.391 24.8204 35.1822 24.8204 34.9093V34.0424C24.8204 33.7855 24.9167 33.5607 25.0933 33.3681C25.286 33.1754 25.4947 33.0952 25.7676 33.0952H26.6346C26.8914 33.0952 27.1162 33.1915 27.3089 33.3681C27.5015 33.5607 27.5818 33.7694 27.5818 34.0424V34.9093Z" fill="#333333"/>
<path d="M55.1635 34.0584V33.1112H53.3493C53.0925 33.1112 52.8677 33.2075 52.6751 33.3841C52.4824 33.5768 52.4021 33.7855 52.4021 34.0584V35.8726H55.1635V34.0584Z" fill="#333333"/>
<path d="M57.9249 33.1112H55.1636V35.8726H57.9249V33.1112Z" fill="#333333"/>
<path d="M59.7392 33.1112H57.925V35.8726H59.7392C59.996 35.8726 60.2208 35.7762 60.4135 35.5996C60.6061 35.407 60.6864 35.1983 60.6864 34.9253V34.0584C60.6864 33.8015 60.5901 33.5768 60.4135 33.3841C60.2208 33.1914 60.0121 33.1112 59.7392 33.1112Z" fill="#333333"/>
<path d="M66.2091 33.1112H63.4477V35.8726H66.2091V33.1112Z" fill="#333333"/>
<path d="M71.7158 34.0584V33.1112H69.9016C69.6447 33.1112 69.42 33.2075 69.2273 33.3841C69.0347 33.5768 68.9544 33.7855 68.9544 34.0584V35.8726H71.7158V34.0584Z" fill="#333333"/>
<path d="M74.4772 33.1112H71.7158V35.8726H74.4772V33.1112Z" fill="#333333"/>
<path d="M77.2387 33.1112H74.4773V35.8726H77.2387V33.1112Z" fill="#333333"/>
<path d="M80 33.1112H77.2386V35.8726H80V33.1112Z" fill="#333333"/>
<path d="M2.7614 36.8204C2.7614 36.5635 2.66508 36.3388 2.48848 36.1461C2.29582 35.9534 2.08711 35.8732 1.81418 35.8732H0.947236C0.690362 35.8732 0.465598 35.9695 0.272943 36.1461C0.0802882 36.3388 1.52588e-05 36.5475 1.52588e-05 36.8204V37.6873C1.52588e-05 37.6873 1.52588e-05 37.7194 1.52588e-05 37.7516V38.6346H2.7614V37.7516C2.7614 37.7516 2.7614 37.7034 2.7614 37.6873V36.8204Z" fill="#333333"/>
<path d="M11.0455 36.8204V35.8732H9.23137C8.9745 35.8732 8.74973 35.9695 8.55708 36.1461C8.36442 36.3388 8.28415 36.5475 8.28415 36.8204V37.6873C8.28415 37.9442 8.38048 38.169 8.55708 38.3616C8.74973 38.5543 8.95844 38.6346 9.23137 38.6346H11.0455V36.8204Z" fill="#333333"/>
<path d="M13.807 35.8732H11.0456V38.6346H13.807V35.8732Z" fill="#333333"/>
<path d="M22.0751 35.8732H19.3137V38.6346H22.0751V35.8732Z" fill="#333333"/>
<path d="M24.8364 36.8204C24.8364 36.5635 24.7401 36.3388 24.5635 36.1461C24.3709 35.9534 24.1622 35.8732 23.8892 35.8732H22.0751V38.6346H24.8364V36.8204Z" fill="#333333"/>
<path d="M55.1796 35.8732H52.4182V38.6346H55.1796V35.8732Z" fill="#333333"/>
<path d="M57.9249 35.8732H55.1636V38.6346H56.9777C57.2346 38.6346 57.4594 38.5382 57.652 38.3616C57.8447 38.169 57.9249 37.9603 57.9249 37.6873V35.8732Z" fill="#333333"/>
<path d="M63.4477 36.8204V35.8732H61.6336C61.3767 35.8732 61.1519 35.9695 60.9593 36.1461C60.7666 36.3388 60.6864 36.5475 60.6864 36.8204V37.6873C60.6864 37.9442 60.7827 38.169 60.9593 38.3616C61.1519 38.5543 61.3606 38.6346 61.6336 38.6346H63.4477V36.8204Z" fill="#333333"/>
<path d="M66.2091 35.8732H63.4477V38.6346H66.2091V35.8732Z" fill="#333333"/>
<path d="M71.7158 35.8732H68.9544V38.6346H71.7158V35.8732Z" fill="#333333"/>
<path d="M74.4772 35.8732H71.7158V38.6346H73.53C73.7869 38.6346 74.0116 38.5382 74.2043 38.3616C74.3969 38.169 74.4772 37.9603 74.4772 37.6873V35.8732Z" fill="#333333"/>
<path d="M80 35.8732H77.2386V38.6346H80V35.8732Z" fill="#333333"/>
<path d="M2.7614 39.5021V38.619H1.52588e-05V39.5021C1.52588e-05 39.5021 1.52588e-05 39.5502 1.52588e-05 39.5663V40.4332C1.52588e-05 40.6901 0.0963428 40.9149 0.272943 41.1075C0.465598 41.3002 0.674308 41.3804 0.947236 41.3804H1.81418C2.07106 41.3804 2.29582 41.2841 2.48848 41.1075C2.68113 40.9149 2.7614 40.7061 2.7614 40.4332V39.5663C2.7614 39.5663 2.7614 39.5342 2.7614 39.5021Z" fill="#333333"/>
<path d="M8.28423 40.4332C8.28423 40.6901 8.1879 40.9149 8.0113 41.1075C7.81865 41.3002 7.60994 41.3804 7.33701 41.3804H6.47006C6.21319 41.3804 5.98843 41.2841 5.79577 41.1075C5.60312 40.9149 5.52284 40.7061 5.52284 40.4332V39.5663C5.52284 39.3094 5.61917 39.0846 5.79577 38.892C5.98843 38.6993 6.19714 38.619 6.47006 38.619H7.33701C7.59388 38.619 7.81865 38.7154 8.0113 38.892C8.20396 39.0846 8.28423 39.2933 8.28423 39.5663V40.4332Z" fill="#333333"/>
<path d="M13.791 38.619H11.0296V40.4332C11.0296 40.6901 11.1259 40.9149 11.3025 41.1075C11.4952 41.3002 11.7039 41.3804 11.9768 41.3804H13.791V38.619Z" fill="#333333"/>
<path d="M16.5522 38.619H13.7908V41.3804H16.5522V38.619Z" fill="#333333"/>
<path d="M19.3137 38.619H16.5523V41.3804H19.3137V38.619Z" fill="#333333"/>
<path d="M22.0751 38.619H19.3137V41.3804H22.0751V38.619Z" fill="#333333"/>
<path d="M24.8364 38.619H22.0751V41.3804H24.8364V38.619Z" fill="#333333"/>
<path d="M26.6346 38.619H24.8204V41.3804H26.6346C26.8914 41.3804 27.1162 41.2841 27.3089 41.1075C27.5015 40.9149 27.5818 40.7061 27.5818 40.4332V39.5663C27.5818 39.3094 27.4855 39.0846 27.3089 38.892C27.1162 38.6993 26.9075 38.619 26.6346 38.619Z" fill="#333333"/>
<path d="M55.1796 38.619H52.4182V41.3804H55.1796V38.619Z" fill="#333333"/>
<path d="M60.6864 40.4332C60.6864 40.6901 60.5901 40.9149 60.4135 41.1075C60.2208 41.3002 60.0121 41.3804 59.7392 41.3804H58.8722C58.6153 41.3804 58.3906 41.2841 58.1979 41.1075C58.0053 40.9149 57.925 40.7061 57.925 40.4332V39.5663C57.925 39.3094 58.0213 39.0846 58.1979 38.892C58.3906 38.6993 58.5993 38.619 58.8722 38.619H59.7392C59.996 38.619 60.2208 38.7154 60.4135 38.892C60.6061 39.0846 60.6864 39.2933 60.6864 39.5663V40.4332Z" fill="#333333"/>
<path d="M66.2091 38.619H63.4477V40.4332C63.4477 40.6901 63.544 40.9149 63.7206 41.1075C63.9133 41.3002 64.122 41.3804 64.3949 41.3804H66.2091V38.619Z" fill="#333333"/>
<path d="M68.9705 38.619H66.2091V41.3804H68.9705V38.619Z" fill="#333333"/>
<path d="M71.7158 38.619H68.9544V41.3804H71.7158V38.619Z" fill="#333333"/>
<path d="M77.2387 39.5663V38.619H75.4245C75.1676 38.619 74.9429 38.7154 74.7502 38.892C74.5575 39.0846 74.4773 39.2933 74.4773 39.5663V41.3804H77.2387V39.5663Z" fill="#333333"/>
<path d="M80 38.619H77.2386V41.3804H79.0528C79.3097 41.3804 79.5344 41.2841 79.7271 41.1075C79.9197 40.9149 80 40.7061 80 40.4332V38.619Z" fill="#333333"/>
<path d="M5.52279 42.3282C5.52279 42.0713 5.42646 41.8465 5.24986 41.6539C5.0572 41.4612 4.84849 41.381 4.57557 41.381H3.70862C3.45175 41.381 3.22698 41.4773 3.03433 41.6539C2.84167 41.8465 2.7614 42.0553 2.7614 42.3282V43.1951C2.7614 43.1951 2.7614 43.2272 2.7614 43.2594V44.1424H5.52279V43.2594C5.52279 43.2594 5.52279 43.2112 5.52279 43.1951V42.3282Z" fill="#333333"/>
<path d="M11.0455 43.1951C11.0455 43.452 10.9492 43.6768 10.7726 43.8694C10.58 44.0621 10.3712 44.1424 10.0983 44.1424H9.23137C8.9745 44.1424 8.74973 44.046 8.55708 43.8694C8.36442 43.6768 8.28415 43.4681 8.28415 43.1951V42.3282C8.28415 42.0713 8.38048 41.8465 8.55708 41.6539C8.74973 41.4612 8.95844 41.381 9.23137 41.381H10.0983C10.3552 41.381 10.58 41.4773 10.7726 41.6539C10.9653 41.8465 11.0455 42.0553 11.0455 42.3282V43.1951Z" fill="#333333"/>
<path d="M16.5522 42.264V41.381H13.7908V42.264C13.7908 42.264 13.7908 42.3121 13.7908 42.3282V43.1951C13.7908 43.452 13.8872 43.6768 14.0638 43.8694C14.2564 44.0621 14.4651 44.1424 14.7381 44.1424H15.605C15.8619 44.1424 16.0866 44.046 16.2793 43.8694C16.4719 43.6768 16.5522 43.4681 16.5522 43.1951V42.3282C16.5522 42.3282 16.5522 42.2961 16.5522 42.264Z" fill="#333333"/>
<path d="M22.059 42.264V41.381H19.2976V42.264C19.2976 42.264 19.2976 42.3121 19.2976 42.3282V43.1951C19.2976 43.452 19.3939 43.6768 19.5705 43.8694C19.7632 44.0621 19.9719 44.1424 20.2448 44.1424H21.1118C21.3686 44.1424 21.5934 44.046 21.7861 43.8694C21.9787 43.6768 22.059 43.4681 22.059 43.1951V42.3282C22.059 42.3282 22.059 42.2961 22.059 42.264Z" fill="#333333"/>
<path d="M55.1635 42.264V41.381H52.4021V42.264C52.4021 42.264 52.4021 42.3121 52.4021 42.3282V43.1951C52.4021 43.452 52.4985 43.6768 52.6751 43.8694C52.8677 44.0621 53.0764 44.1424 53.3493 44.1424H54.2163C54.4732 44.1424 54.6979 44.046 54.8906 43.8694C55.0832 43.6768 55.1635 43.4681 55.1635 43.1951V42.3282C55.1635 42.3282 55.1635 42.2961 55.1635 42.264Z" fill="#333333"/>
<path d="M68.9705 41.381H66.2091V44.1424H68.9705V41.381Z" fill="#333333"/>
<path d="M71.7158 41.381H68.9544V44.1424H71.7158V41.381Z" fill="#333333"/>
<path d="M77.2387 41.381H74.4773V44.1424H77.2387V41.381Z" fill="#333333"/>
<path d="M2.7614 45.0902V44.1429H0.947236C0.690362 44.1429 0.465598 44.2393 0.272943 44.4159C0.0802882 44.6085 1.52588e-05 44.8172 1.52588e-05 45.0902V45.9571C1.52588e-05 46.214 0.0963428 46.4388 0.272943 46.6314C0.465598 46.8241 0.674308 46.9043 0.947236 46.9043H2.7614V45.0902Z" fill="#333333"/>
<path d="M5.52279 44.1429H2.7614V46.9043H5.52279V44.1429Z" fill="#333333"/>
<path d="M13.791 45.0902C13.791 44.8333 13.6946 44.6085 13.518 44.4159C13.3254 44.2232 13.1167 44.1429 12.8437 44.1429H11.9768C11.7199 44.1429 11.4952 44.2393 11.3025 44.4159C11.1098 44.6085 11.0296 44.8172 11.0296 45.0902V45.9571C11.0296 45.9571 11.0296 45.9892 11.0296 46.0213V46.9043H13.791V46.0213C13.791 46.0213 13.791 45.9732 13.791 45.9571V45.0902Z" fill="#333333"/>
<path d="M19.3137 45.9571C19.3137 46.214 19.2173 46.4388 19.0407 46.6314C18.8481 46.8241 18.6394 46.9043 18.3664 46.9043H17.4995C17.2426 46.9043 17.0179 46.808 16.8252 46.6314C16.6325 46.4388 16.5523 46.23 16.5523 45.9571V45.0902C16.5523 44.8333 16.6486 44.6085 16.8252 44.4159C17.0179 44.2232 17.2266 44.1429 17.4995 44.1429H18.3664C18.6233 44.1429 18.8481 44.2393 19.0407 44.4159C19.2334 44.6085 19.3137 44.8172 19.3137 45.0902V45.9571Z" fill="#333333"/>
<path d="M27.5818 45.0902C27.5818 44.8333 27.4855 44.6085 27.3089 44.4159C27.1162 44.2232 26.9075 44.1429 26.6346 44.1429H25.7676C25.5107 44.1429 25.286 44.2393 25.0933 44.4159C24.9007 44.6085 24.8204 44.8172 24.8204 45.0902V45.9571C24.8204 45.9571 24.8204 45.9892 24.8204 46.0213V46.9043H27.5818V46.0213C27.5818 46.0213 27.5818 45.9732 27.5818 45.9571V45.0902Z" fill="#333333"/>
<path d="M66.2091 45.0902V44.1429H64.3949C64.138 44.1429 63.9133 44.2393 63.7206 44.4159C63.528 44.6085 63.4477 44.8172 63.4477 45.0902V46.9043H66.2091V45.0902Z" fill="#333333"/>
<path d="M68.9705 44.1429H66.2091V46.9043H68.9705V44.1429Z" fill="#333333"/>
<path d="M71.7158 44.1429H68.9544V46.9043H71.7158V44.1429Z" fill="#333333"/>
<path d="M77.2226 45.0259V44.1429H74.4613V45.0259C74.4613 45.0259 74.4613 45.0741 74.4613 45.0902V45.9571C74.4613 46.214 74.5576 46.4388 74.7342 46.6314C74.9268 46.8241 75.1355 46.9043 75.4085 46.9043H76.2754C76.5323 46.9043 76.7571 46.808 76.9497 46.6314C77.1424 46.4388 77.2226 46.23 77.2226 45.9571V45.0902C77.2226 45.0902 77.2226 45.0581 77.2226 45.0259Z" fill="#333333"/>
<path d="M5.52279 46.9048H2.7614V48.719C2.7614 48.9759 2.85773 49.2007 3.03433 49.3933C3.22698 49.586 3.43569 49.6662 3.70862 49.6662H5.52279V46.9048Z" fill="#333333"/>
<path d="M8.28423 46.9048H5.52284V49.6662H8.28423V46.9048Z" fill="#333333"/>
<path d="M11.0455 46.9048H8.28415V49.6662H11.0455V46.9048Z" fill="#333333"/>
<path d="M13.807 46.9048H11.0456V49.6662H13.807V46.9048Z" fill="#333333"/>
<path d="M15.605 46.9048H13.7908V49.6662H15.605C15.8619 49.6662 16.0866 49.5699 16.2793 49.3933C16.4719 49.2007 16.5522 48.9919 16.5522 48.719V47.8521C16.5522 47.5952 16.4559 47.3704 16.2793 47.1778C16.0866 46.9851 15.8779 46.9048 15.605 46.9048Z" fill="#333333"/>
<path d="M22.0751 47.8521V46.9048H20.2609C20.0041 46.9048 19.7793 47.0012 19.5866 47.1778C19.394 47.3704 19.3137 47.5791 19.3137 47.8521V49.6662H22.0751V47.8521Z" fill="#333333"/>
<path d="M24.8364 46.9048H22.0751V49.6662H24.8364V46.9048Z" fill="#333333"/>
<path d="M27.5978 46.9048H24.8364V49.6662H27.5978V46.9048Z" fill="#333333"/>
<path d="M55.1635 48.703C55.1635 48.9599 55.0672 49.1846 54.8906 49.3773C54.6979 49.57 54.4892 49.6502 54.2163 49.6502H53.3493C53.0925 49.6502 52.8677 49.5539 52.6751 49.3773C52.4824 49.1846 52.4021 48.9759 52.4021 48.703V47.8361C52.4021 47.5792 52.4985 47.3544 52.6751 47.1618C52.8677 46.9691 53.0764 46.8888 53.3493 46.8888H54.2163C54.4732 46.8888 54.6979 46.9852 54.8906 47.1618C55.0832 47.3544 55.1635 47.5631 55.1635 47.8361V48.703Z" fill="#333333"/>
<path d="M63.4477 47.8521V46.9048H61.6336C61.3767 46.9048 61.1519 47.0012 60.9593 47.1778C60.7666 47.3704 60.6864 47.5791 60.6864 47.8521V49.6662H63.4477V47.8521Z" fill="#333333"/>
<path d="M66.2091 46.9048H63.4477V49.6662H66.2091V46.9048Z" fill="#333333"/>
<path d="M71.7158 47.7879V46.9048H68.9544V47.7879C68.9544 47.7879 68.9544 47.836 68.9544 47.8521V48.719C68.9544 48.9759 69.0507 49.2007 69.2273 49.3933C69.42 49.586 69.6287 49.6662 69.9016 49.6662H70.7686C71.0254 49.6662 71.2502 49.5699 71.4429 49.3933C71.6355 49.2007 71.7158 48.9919 71.7158 48.719V47.8521C71.7158 47.8521 71.7158 47.82 71.7158 47.7879Z" fill="#333333"/>
<path d="M2.7614 51.4649C2.7614 51.7218 2.66508 51.9465 2.48848 52.1392C2.29582 52.3319 2.08711 52.4121 1.81418 52.4121H0.947236C0.690362 52.4121 0.465598 52.3158 0.272943 52.1392C0.0802882 51.9465 1.52588e-05 51.7378 1.52588e-05 51.4649V50.598C1.52588e-05 50.3411 0.0963428 50.1163 0.272943 49.9237C0.465598 49.731 0.674308 49.6507 0.947236 49.6507H1.81418C2.07106 49.6507 2.29582 49.7471 2.48848 49.9237C2.68113 50.1163 2.7614 50.325 2.7614 50.598V51.4649Z" fill="#333333"/>
<path d="M11.0455 49.6668H8.28415V52.4282H11.0455V49.6668Z" fill="#333333"/>
<path d="M19.3137 50.6141V49.6668H17.4995C17.2426 49.6668 17.0179 49.7632 16.8252 49.9398C16.6325 50.1324 16.5523 50.3411 16.5523 50.6141V51.481C16.5523 51.7379 16.6486 51.9626 16.8252 52.1553C17.0179 52.348 17.2266 52.4282 17.4995 52.4282H19.3137V50.6141Z" fill="#333333"/>
<path d="M22.0751 49.6668H19.3137V52.4282H21.1279C21.3847 52.4282 21.6095 52.3319 21.8022 52.1553C21.9948 51.9626 22.0751 51.7539 22.0751 51.481V49.6668Z" fill="#333333"/>
<path d="M27.5978 49.6668H24.8364V52.4282H27.5978V49.6668Z" fill="#333333"/>
<path d="M57.9249 50.6141C57.9249 50.3572 57.8286 50.1324 57.652 49.9398C57.4594 49.7471 57.2507 49.6668 56.9777 49.6668H56.1108C55.8539 49.6668 55.6291 49.7632 55.4365 49.9398C55.2438 50.1324 55.1636 50.3411 55.1636 50.6141V51.481C55.1636 51.481 55.1636 51.5131 55.1636 51.5452V52.4282H57.9249V51.5452C57.9249 51.5452 57.9249 51.4971 57.9249 51.481V50.6141Z" fill="#333333"/>
<path d="M63.4477 49.6668H60.6864V52.4282H63.4477V49.6668Z" fill="#333333"/>
<path d="M66.2091 49.6668H63.4477V52.4282H66.2091V49.6668Z" fill="#333333"/>
<path d="M74.4772 50.6141C74.4772 50.3572 74.3809 50.1324 74.2043 49.9398C74.0116 49.7471 73.8029 49.6668 73.53 49.6668H72.663C72.4062 49.6668 72.1814 49.7632 71.9888 49.9398C71.7961 50.1324 71.7158 50.3411 71.7158 50.6141V51.481C71.7158 51.481 71.7158 51.5131 71.7158 51.5452V52.4282H74.4772V51.5452C74.4772 51.5452 74.4772 51.4971 74.4772 51.481V50.6141Z" fill="#333333"/>
<path d="M11.0455 52.4126H8.28415V55.174H11.0455V52.4126Z" fill="#333333"/>
<path d="M12.8437 52.4126H11.0296V55.174H12.8437C13.1006 55.174 13.3254 55.0777 13.518 54.9011C13.7107 54.7084 13.791 54.4997 13.791 54.2268V53.3599C13.791 53.103 13.6946 52.8782 13.518 52.6856C13.3254 52.4929 13.1167 52.4126 12.8437 52.4126Z" fill="#333333"/>
<path d="M27.5978 52.4126H24.8364V55.174H27.5978V52.4126Z" fill="#333333"/>
<path d="M41.3727 53.3599V52.4126H39.5585C39.3016 52.4126 39.0769 52.509 38.8842 52.6856C38.6916 52.8782 38.6113 53.0869 38.6113 53.3599V54.2268C38.6113 54.4837 38.7076 54.7084 38.8842 54.9011C39.0769 55.0938 39.2856 55.174 39.5585 55.174H41.3727V53.3599Z" fill="#333333"/>
<path d="M43.1868 52.4126H41.3727V55.174H43.1868C43.4437 55.174 43.6685 55.0777 43.8611 54.9011C44.0538 54.7084 44.134 54.4997 44.134 54.2268V53.3599C44.134 53.103 44.0377 52.8782 43.8611 52.6856C43.6685 52.4929 43.4597 52.4126 43.1868 52.4126Z" fill="#333333"/>
<path d="M49.6568 54.2268C49.6568 54.4837 49.5605 54.7084 49.3839 54.9011C49.1912 55.0938 48.9825 55.174 48.7096 55.174H47.8427C47.5858 55.174 47.361 55.0777 47.1684 54.9011C46.9757 54.7084 46.8954 54.4997 46.8954 54.2268V53.3599C46.8954 53.103 46.9918 52.8782 47.1684 52.6856C47.361 52.4929 47.5697 52.4126 47.8427 52.4126H48.7096C48.9665 52.4126 49.1912 52.509 49.3839 52.6856C49.5766 52.8782 49.6568 53.0869 49.6568 53.3599V54.2268Z" fill="#333333"/>
<path d="M57.9249 52.4126H55.1636V55.174H57.9249V52.4126Z" fill="#333333"/>
<path d="M60.6864 52.4126H57.925V55.174H60.6864V52.4126Z" fill="#333333"/>
<path d="M63.4477 52.4126H60.6864V55.174H63.4477V52.4126Z" fill="#333333"/>
<path d="M66.2091 52.4126H63.4477V55.174H66.2091V52.4126Z" fill="#333333"/>
<path d="M74.4772 52.4126H71.7158V55.174H74.4772V52.4126Z" fill="#333333"/>
<path d="M77.2387 52.4126H74.4773V55.174H77.2387V52.4126Z" fill="#333333"/>
<path d="M80 53.3599C80 53.103 79.9037 52.8782 79.7271 52.6856C79.5344 52.4929 79.3257 52.4126 79.0528 52.4126H77.2386V55.174H80V53.3599Z" fill="#333333"/>
<path d="M5.52279 56.1219V55.1746H3.70862C3.45175 55.1746 3.22698 55.271 3.03433 55.4476C2.84167 55.6402 2.7614 55.8489 2.7614 56.1219V56.9888C2.7614 57.2457 2.85773 57.4704 3.03433 57.6631C3.22698 57.8558 3.43569 57.936 3.70862 57.936H5.52279V56.1219Z" fill="#333333"/>
<path d="M8.28423 55.1746H5.52284V57.936H8.28423V55.1746Z" fill="#333333"/>
<path d="M11.0455 55.1746H8.28415V57.936H10.0983C10.3552 57.936 10.58 57.8397 10.7726 57.6631C10.9653 57.4704 11.0455 57.2617 11.0455 56.9888V55.1746Z" fill="#333333"/>
<path d="M16.5522 56.1219V55.1746H14.7381C14.4812 55.1746 14.2564 55.271 14.0638 55.4476C13.8711 55.6402 13.7908 55.8489 13.7908 56.1219V56.9888C13.7908 57.2457 13.8872 57.4704 14.0638 57.6631C14.2564 57.8558 14.4651 57.936 14.7381 57.936H16.5522V56.1219Z" fill="#333333"/>
<path d="M19.3137 55.1746H16.5523V57.936H19.3137V55.1746Z" fill="#333333"/>
<path d="M22.0751 55.1746H19.3137V57.936H22.0751V55.1746Z" fill="#333333"/>
<path d="M24.8364 55.1746H22.0751V57.936H24.8364V55.1746Z" fill="#333333"/>
<path d="M27.5978 55.1746H24.8364V57.936H27.5978V55.1746Z" fill="#333333"/>
<path d="M30.3432 55.1746H27.5818V57.936H30.3432V55.1746Z" fill="#333333"/>
<path d="M33.1046 56.1219C33.1046 55.865 33.0082 55.6402 32.8316 55.4476C32.639 55.2549 32.4303 55.1746 32.1574 55.1746H30.3432V57.936H33.1046V56.1219Z" fill="#333333"/>
<path d="M38.6274 56.1219C38.6274 55.865 38.531 55.6402 38.3544 55.4476C38.1618 55.2549 37.9531 55.1746 37.6801 55.1746H36.8132C36.5563 55.1746 36.3315 55.271 36.1389 55.4476C35.9462 55.6402 35.866 55.8489 35.866 56.1219V56.9888C35.866 56.9888 35.866 57.0209 35.866 57.053V57.936H38.6274V57.053C38.6274 57.053 38.6274 57.0049 38.6274 56.9888V56.1219Z" fill="#333333"/>
<path d="M55.1635 56.1219V55.1746H53.3493C53.0925 55.1746 52.8677 55.271 52.6751 55.4476C52.4824 55.6402 52.4021 55.8489 52.4021 56.1219V57.936H55.1635V56.1219Z" fill="#333333"/>
<path d="M57.9249 55.1746H55.1636V57.936H57.9249V55.1746Z" fill="#333333"/>
<path d="M60.6864 55.1746H57.925V57.936H60.6864V55.1746Z" fill="#333333"/>
<path d="M63.4477 55.1746H60.6864V57.936H63.4477V55.1746Z" fill="#333333"/>
<path d="M66.2091 55.1746H63.4477V57.936H66.2091V55.1746Z" fill="#333333"/>
<path d="M68.9705 55.1746H66.2091V57.936H68.9705V55.1746Z" fill="#333333"/>
<path d="M71.7158 55.1746H68.9544V57.936H71.7158V55.1746Z" fill="#333333"/>
<path d="M74.4772 55.1746H71.7158V57.936H73.53C73.7869 57.936 74.0116 57.8397 74.2043 57.6631C74.3969 57.4704 74.4772 57.2617 74.4772 56.9888V55.1746Z" fill="#333333"/>
<path d="M80 55.1746H77.2386V57.936H80V55.1746Z" fill="#333333"/>
<path d="M24.8364 57.9365H22.0751V60.6979H24.8364V57.9365Z" fill="#333333"/>
<path d="M30.3432 57.9365H27.5818V60.6979H30.3432V57.9365Z" fill="#333333"/>
<path d="M33.1046 57.9365H30.3432V60.6979H32.1574C32.4142 60.6979 32.639 60.6016 32.8316 60.425C33.0243 60.2323 33.1046 60.0236 33.1046 59.7507V57.9365Z" fill="#333333"/>
<path d="M38.6113 58.8195V57.9365H35.8499V58.8195C35.8499 58.8195 35.8499 58.8677 35.8499 58.8838V59.7507C35.8499 60.0076 35.9462 60.2323 36.1228 60.425C36.3155 60.6177 36.5242 60.6979 36.7971 60.6979H37.664C37.9209 60.6979 38.1457 60.6016 38.3383 60.425C38.531 60.2323 38.6113 60.0236 38.6113 59.7507V58.8838C38.6113 58.8838 38.6113 58.8516 38.6113 58.8195Z" fill="#333333"/>
<path d="M44.134 58.8838V57.9365H42.3199C42.063 57.9365 41.8382 58.0329 41.6456 58.2095C41.4529 58.4021 41.3727 58.6108 41.3727 58.8838V60.6979H44.134V58.8838Z" fill="#333333"/>
<path d="M45.9482 57.9365H44.134V60.6979H45.9482C46.205 60.6979 46.4298 60.6016 46.6225 60.425C46.8151 60.2323 46.8954 60.0236 46.8954 59.7507V58.8838C46.8954 58.6269 46.7991 58.4021 46.6225 58.2095C46.4298 58.0168 46.2211 57.9365 45.9482 57.9365Z" fill="#333333"/>
<path d="M52.4183 58.8838V57.9365H50.6041C50.3472 57.9365 50.1225 58.0329 49.9298 58.2095C49.7371 58.4021 49.6569 58.6108 49.6569 58.8838V60.6979H52.4183V58.8838Z" fill="#333333"/>
<path d="M55.1796 57.9365H52.4182V60.6979H55.1796V57.9365Z" fill="#333333"/>
<path d="M57.9249 57.9365H55.1636V60.6979H57.9249V57.9365Z" fill="#333333"/>
<path d="M68.9705 57.9365H66.2091V60.6979H68.9705V57.9365Z" fill="#333333"/>
<path d="M71.7158 57.9365H68.9544V60.6979H70.7686C71.0254 60.6979 71.2502 60.6016 71.4429 60.425C71.6355 60.2323 71.7158 60.0236 71.7158 59.7507V57.9365Z" fill="#333333"/>
<path d="M77.2387 58.8838V57.9365H75.4245C75.1676 57.9365 74.9429 58.0329 74.7502 58.2095C74.5575 58.4021 74.4773 58.6108 74.4773 58.8838V60.6979H77.2387V58.8838Z" fill="#333333"/>
<path d="M80 57.9365H77.2386V60.6979H79.0528C79.3097 60.6979 79.5344 60.6016 79.7271 60.425C79.9197 60.2323 80 60.0236 80 59.7507V57.9365Z" fill="#333333"/>
<path d="M24.8203 61.5815V60.6985H22.059V61.5815C22.059 61.5815 22.059 61.6297 22.059 61.6458V62.5127C22.059 62.7696 22.1553 62.9943 22.3319 63.187C22.5245 63.3796 22.7333 63.4599 23.0062 63.4599H23.8731C24.13 63.4599 24.3548 63.3636 24.5474 63.187C24.7401 62.9943 24.8203 62.7856 24.8203 62.5127V61.6458C24.8203 61.6458 24.8203 61.6136 24.8203 61.5815Z" fill="#333333"/>
<path d="M30.3432 61.5815V60.6985H27.5818V61.5815C27.5818 61.5815 27.5818 61.6297 27.5818 61.6458V62.5127C27.5818 62.7696 27.6782 62.9943 27.8548 63.187C28.0474 63.3796 28.2561 63.4599 28.5291 63.4599H29.396C29.6529 63.4599 29.8776 63.3636 30.0703 63.187C30.2629 62.9943 30.3432 62.7856 30.3432 62.5127V61.6458C30.3432 61.6458 30.3432 61.6136 30.3432 61.5815Z" fill="#333333"/>
<path d="M41.3727 61.6458V60.6985H39.5585C39.3016 60.6985 39.0769 60.7949 38.8842 60.9715C38.6916 61.1641 38.6113 61.3728 38.6113 61.6458V62.5127C38.6113 62.7696 38.7076 62.9943 38.8842 63.187C39.0769 63.3796 39.2856 63.4599 39.5585 63.4599H41.3727V61.6458Z" fill="#333333"/>
<path d="M44.134 60.6985H41.3727V63.4599H43.1868C43.4437 63.4599 43.6685 63.3636 43.8611 63.187C44.0538 62.9943 44.134 62.7856 44.134 62.5127V60.6985Z" fill="#333333"/>
<path d="M52.4183 60.6985H49.6569V63.4599H52.4183V60.6985Z" fill="#333333"/>
<path d="M55.1796 60.6985H52.4182V63.4599H55.1796V60.6985Z" fill="#333333"/>
<path d="M57.9249 60.6985H55.1636V63.4599H57.9249V60.6985Z" fill="#333333"/>
<path d="M63.4477 62.4966C63.4477 62.7535 63.3514 62.9782 63.1748 63.1709C62.9822 63.3635 62.7735 63.4438 62.5005 63.4438H61.6336C61.3767 63.4438 61.1519 63.3475 60.9593 63.1709C60.7666 62.9782 60.6864 62.7695 60.6864 62.4966V61.6297C60.6864 61.3728 60.7827 61.148 60.9593 60.9554C61.1519 60.7627 61.3606 60.6824 61.6336 60.6824H62.5005C62.7574 60.6824 62.9822 60.7788 63.1748 60.9554C63.3675 61.148 63.4477 61.3567 63.4477 61.6297V62.4966Z" fill="#333333"/>
<path d="M68.9705 60.6985H66.2091V63.4599H68.9705V60.6985Z" fill="#333333"/>
<path d="M74.4772 61.6458V60.6985H72.663C72.4062 60.6985 72.1814 60.7949 71.9888 60.9715C71.7961 61.1641 71.7158 61.3728 71.7158 61.6458V62.5127C71.7158 62.7696 71.8122 62.9943 71.9888 63.187C72.1814 63.3796 72.3901 63.4599 72.663 63.4599H74.4772V61.6458Z" fill="#333333"/>
<path d="M77.2387 60.6985H74.4773V63.4599H76.2914C76.5483 63.4599 76.7731 63.3636 76.9657 63.187C77.1584 62.9943 77.2387 62.7856 77.2387 62.5127V60.6985Z" fill="#333333"/>
<path d="M27.5818 64.4077C27.5818 64.1508 27.4855 63.926 27.3089 63.7334C27.1162 63.5407 26.9075 63.4604 26.6346 63.4604H25.7676C25.5107 63.4604 25.286 63.5568 25.0933 63.7334C24.9007 63.926 24.8204 64.1347 24.8204 64.4077V65.2746C24.8204 65.2746 24.8204 65.3067 24.8204 65.3388V66.2218H27.5818V65.3388C27.5818 65.3388 27.5818 65.2907 27.5818 65.2746V64.4077Z" fill="#333333"/>
<path d="M38.6274 64.4077C38.6274 64.1508 38.531 63.926 38.3544 63.7334C38.1618 63.5407 37.9531 63.4604 37.6801 63.4604H36.8132C36.5563 63.4604 36.3315 63.5568 36.1389 63.7334C35.9462 63.926 35.866 64.1347 35.866 64.4077V65.2746C35.866 65.2746 35.866 65.3067 35.866 65.3388V66.2218H38.6274V65.3388C38.6274 65.3388 38.6274 65.2907 38.6274 65.2746V64.4077Z" fill="#333333"/>
<path d="M49.6568 64.4077V63.4604H47.8427C47.5858 63.4604 47.361 63.5568 47.1684 63.7334C46.9757 63.926 46.8954 64.1347 46.8954 64.4077V65.2746C46.8954 65.5315 46.9918 65.7563 47.1684 65.9489C47.361 66.1416 47.5697 66.2218 47.8427 66.2218H49.6568V64.4077Z" fill="#333333"/>
<path d="M52.4183 63.4444H49.6569V66.2058H52.4183V63.4444Z" fill="#333333"/>
<path d="M55.1796 63.4444H52.4182V66.2058H55.1796V63.4444Z" fill="#333333"/>
<path d="M57.9249 63.4444H55.1636V66.2058H57.9249V63.4444Z" fill="#333333"/>
<path d="M68.9705 63.4444H66.2091V66.2058H68.9705V63.4444Z" fill="#333333"/>
<path d="M27.5818 66.2063H24.8204V68.0205C24.8204 68.2774 24.9167 68.5021 25.0933 68.6948C25.286 68.8874 25.4947 68.9677 25.7676 68.9677H27.5818V66.2063Z" fill="#333333"/>
<path d="M29.396 66.2063H27.5818V68.9677H29.396C29.6529 68.9677 29.8776 68.8714 30.0703 68.6948C30.2629 68.5021 30.3432 68.2934 30.3432 68.0205V67.1536C30.3432 66.8967 30.2469 66.6719 30.0703 66.4793C29.8776 66.2866 29.6689 66.2063 29.396 66.2063Z" fill="#333333"/>
<path d="M38.6274 66.2063H35.866V68.9677H38.6274V66.2063Z" fill="#333333"/>
<path d="M41.3887 66.2063H38.6273V68.9677H41.3887V66.2063Z" fill="#333333"/>
<path d="M44.134 66.2063H41.3727V68.9677H44.134V66.2063Z" fill="#333333"/>
<path d="M46.8954 67.1536C46.8954 66.8967 46.7991 66.6719 46.6225 66.4793C46.4298 66.2866 46.2211 66.2063 45.9482 66.2063H44.134V68.9677H46.8954V67.1536Z" fill="#333333"/>
<path d="M57.9249 66.2063H55.1636V68.0205C55.1636 68.2774 55.2599 68.5021 55.4365 68.6948C55.6291 68.8874 55.8379 68.9677 56.1108 68.9677H57.9249V66.2063Z" fill="#333333"/>
<path d="M60.6864 66.2063H57.925V68.9677H60.6864V66.2063Z" fill="#333333"/>
<path d="M63.4477 66.2063H60.6864V68.9677H63.4477V66.2063Z" fill="#333333"/>
<path d="M66.2091 66.2063H63.4477V68.9677H66.2091V66.2063Z" fill="#333333"/>
<path d="M68.9705 66.2063H66.2091V68.9677H68.9705V66.2063Z" fill="#333333"/>
<path d="M71.7158 66.2063H68.9544V68.9677H71.7158V66.2063Z" fill="#333333"/>
<path d="M74.4772 66.2063H71.7158V68.9677H74.4772V66.2063Z" fill="#333333"/>
<path d="M77.2387 67.1536C77.2387 66.8967 77.1423 66.6719 76.9657 66.4793C76.7731 66.2866 76.5644 66.2063 76.2914 66.2063H74.4773V68.9677H77.2387V67.1536Z" fill="#333333"/>
<path d="M24.8364 69.9155C24.8364 69.6587 24.7401 69.4339 24.5635 69.2412C24.3709 69.0486 24.1622 68.9683 23.8892 68.9683H23.0223C22.7654 68.9683 22.5406 69.0646 22.348 69.2412C22.1553 69.4339 22.0751 69.6426 22.0751 69.9155V70.7825C22.0751 70.7825 22.0751 70.8146 22.0751 70.8467V71.7297H24.8364V70.8467C24.8364 70.8467 24.8364 70.7985 24.8364 70.7825V69.9155Z" fill="#333333"/>
<path d="M33.1046 69.9155V68.9683H31.2904C31.0335 68.9683 30.8088 69.0646 30.6161 69.2412C30.4235 69.4339 30.3432 69.6426 30.3432 69.9155V70.7825C30.3432 71.0394 30.4395 71.2641 30.6161 71.4568C30.8088 71.6494 31.0175 71.7297 31.2904 71.7297H33.1046V69.9155Z" fill="#333333"/>
<path d="M35.8659 68.9683H33.1045V71.7297H35.8659V68.9683Z" fill="#333333"/>
<path d="M38.6274 68.9683H35.866V71.7297H37.6801C37.937 71.7297 38.1618 71.6334 38.3544 71.4568C38.5471 71.2641 38.6274 71.0554 38.6274 70.7825V68.9683Z" fill="#333333"/>
<path d="M44.134 68.9683H41.3727V71.7297H44.134V68.9683Z" fill="#333333"/>
<path d="M46.8954 68.9683H44.134V71.7297H46.8954V68.9683Z" fill="#333333"/>
<path d="M49.6568 69.9155C49.6568 69.6587 49.5605 69.4339 49.3839 69.2412C49.1912 69.0486 48.9825 68.9683 48.7096 68.9683H46.8954V71.7297H49.6568V69.9155Z" fill="#333333"/>
<path d="M55.1635 70.7825C55.1635 71.0394 55.0672 71.2641 54.8906 71.4568C54.6979 71.6494 54.4892 71.7297 54.2163 71.7297H53.3493C53.0925 71.7297 52.8677 71.6334 52.6751 71.4568C52.4824 71.2641 52.4021 71.0554 52.4021 70.7825V69.9155C52.4021 69.6587 52.4985 69.4339 52.6751 69.2412C52.8677 69.0486 53.0764 68.9683 53.3493 68.9683H54.2163C54.4732 68.9683 54.6979 69.0646 54.8906 69.2412C55.0832 69.4339 55.1635 69.6426 55.1635 69.9155V70.7825Z" fill="#333333"/>
<path d="M68.9545 68.9683H66.1931V70.7825C66.1931 71.0394 66.2895 71.2641 66.4661 71.4568C66.6587 71.6494 66.8674 71.7297 67.1404 71.7297H68.9545V68.9683Z" fill="#333333"/>
<path d="M71.7158 68.9683H68.9544V71.7297H71.7158V68.9683Z" fill="#333333"/>
<path d="M77.2226 69.8513V68.9683H74.4613V69.8513C74.4613 69.8513 74.4613 69.8995 74.4613 69.9155V70.7825C74.4613 71.0394 74.5576 71.2641 74.7342 71.4568C74.9268 71.6494 75.1355 71.7297 75.4085 71.7297H76.2754C76.5323 71.7297 76.7571 71.6334 76.9497 71.4568C77.1424 71.2641 77.2226 71.0554 77.2226 70.7825V69.9155C77.2226 69.9155 77.2226 69.8834 77.2226 69.8513Z" fill="#333333"/>
<path d="M24.8364 71.7302H22.0751V73.5444C22.0751 73.8013 22.1714 74.026 22.348 74.2187C22.5406 74.4113 22.7494 74.4916 23.0223 74.4916H24.8364V71.7302Z" fill="#333333"/>
<path d="M26.6346 71.7302H24.8204V74.4916H26.6346C26.8914 74.4916 27.1162 74.3953 27.3089 74.2187C27.5015 74.026 27.5818 73.8173 27.5818 73.5444V72.6774C27.5818 72.4206 27.4855 72.1958 27.3089 72.0032C27.1162 71.8105 26.9075 71.7302 26.6346 71.7302Z" fill="#333333"/>
<path d="M44.134 71.7302H41.3727V73.5444C41.3727 73.8013 41.469 74.026 41.6456 74.2187C41.8382 74.4113 42.0469 74.4916 42.3199 74.4916H44.134V71.7302Z" fill="#333333"/>
<path d="M46.8954 71.7302H44.134V74.4916H46.8954V71.7302Z" fill="#333333"/>
<path d="M49.6568 71.7302H46.8954V74.4916H49.6568V71.7302Z" fill="#333333"/>
<path d="M52.4183 72.6774C52.4183 72.4206 52.3219 72.1958 52.1453 72.0032C51.9527 71.8105 51.744 71.7302 51.471 71.7302H49.6569V74.4916H52.4183V72.6774Z" fill="#333333"/>
<path d="M57.9249 73.5444C57.9249 73.8013 57.8286 74.026 57.652 74.2187C57.4594 74.4113 57.2507 74.4916 56.9777 74.4916H56.1108C55.8539 74.4916 55.6291 74.3953 55.4365 74.2187C55.2438 74.026 55.1636 73.8173 55.1636 73.5444V72.6774C55.1636 72.4206 55.2599 72.1958 55.4365 72.0032C55.6291 71.8105 55.8379 71.7302 56.1108 71.7302H56.9777C57.2346 71.7302 57.4594 71.8266 57.652 72.0032C57.8447 72.1958 57.9249 72.4045 57.9249 72.6774V73.5444Z" fill="#333333"/>
<path d="M66.2091 73.5444C66.2091 73.8013 66.1128 74.026 65.9362 74.2187C65.7435 74.4113 65.5348 74.4916 65.2619 74.4916H64.3949C64.138 74.4916 63.9133 74.3953 63.7206 74.2187C63.528 74.026 63.4477 73.8173 63.4477 73.5444V72.6774C63.4477 72.4206 63.544 72.1958 63.7206 72.0032C63.9133 71.8105 64.122 71.7302 64.3949 71.7302H65.2619C65.5187 71.7302 65.7435 71.8266 65.9362 72.0032C66.1288 72.1958 66.2091 72.4045 66.2091 72.6774V73.5444Z" fill="#333333"/>
<path d="M71.7158 71.7302H68.9544V74.4916H71.7158V71.7302Z" fill="#333333"/>
<path d="M73.53 71.7302H71.7158V74.4916H73.53C73.7869 74.4916 74.0116 74.3953 74.2043 74.2187C74.3969 74.026 74.4772 73.8173 74.4772 73.5444V72.6774C74.4772 72.4206 74.3809 72.1958 74.2043 72.0032C74.0116 71.8105 73.8029 71.7302 73.53 71.7302Z" fill="#333333"/>
<path d="M80 73.5444C80 73.8013 79.9037 74.026 79.7271 74.2187C79.5344 74.4113 79.3257 74.4916 79.0528 74.4916H78.1858C77.929 74.4916 77.7042 74.3953 77.5115 74.2187C77.3189 74.026 77.2386 73.8173 77.2386 73.5444V72.6774C77.2386 72.4206 77.3349 72.1958 77.5115 72.0032C77.7042 71.8105 77.9129 71.7302 78.1858 71.7302H79.0528C79.3097 71.7302 79.5344 71.8266 79.7271 72.0032C79.9197 72.1958 80 72.4045 80 72.6774V73.5444Z" fill="#333333"/>
<path d="M35.8659 75.4393V74.4921H34.0517C33.7949 74.4921 33.5701 74.5885 33.3775 74.7651C33.1848 74.9577 33.1045 75.1664 33.1045 75.4393V76.3063C33.1045 76.5632 33.2009 76.7879 33.3775 76.9806C33.5701 77.1732 33.7788 77.2535 34.0517 77.2535H35.8659V75.4393Z" fill="#333333"/>
<path d="M38.6274 74.4921H35.866V77.2535H38.6274V74.4921Z" fill="#333333"/>
<path d="M40.4255 74.4921H38.6113V77.2535H40.4255C40.6823 77.2535 40.9071 77.1572 41.0998 76.9806C41.2924 76.7879 41.3727 76.5792 41.3727 76.3063V75.4393C41.3727 75.1825 41.2764 74.9577 41.0998 74.7651C40.9071 74.5724 40.6984 74.4921 40.4255 74.4921Z" fill="#333333"/>
<path d="M46.8954 74.4921H44.134V76.3063C44.134 76.5632 44.2303 76.7879 44.4069 76.9806C44.5996 77.1732 44.8083 77.2535 45.0812 77.2535H46.8954V74.4921Z" fill="#333333"/>
<path d="M49.6568 74.4921H46.8954V77.2535H49.6568V74.4921Z" fill="#333333"/>
<path d="M52.4183 74.4921H49.6569V77.2535H51.471C51.7279 77.2535 51.9527 77.1572 52.1453 76.9806C52.338 76.7879 52.4183 76.5792 52.4183 76.3063V74.4921Z" fill="#333333"/>
<path d="M63.4477 75.4393C63.4477 75.1825 63.3514 74.9577 63.1748 74.7651C62.9822 74.5724 62.7735 74.4921 62.5005 74.4921H61.6336C61.3767 74.4921 61.1519 74.5885 60.9593 74.7651C60.7666 74.9577 60.6864 75.1664 60.6864 75.4393V76.3063C60.6864 76.3063 60.6864 76.3384 60.6864 76.3705V77.2535H63.4477V76.3705C63.4477 76.3705 63.4477 76.3224 63.4477 76.3063V75.4393Z" fill="#333333"/>
<path d="M68.9545 75.4393V74.4921H67.1404C66.8835 74.4921 66.6587 74.5885 66.4661 74.7651C66.2734 74.9577 66.1931 75.1664 66.1931 75.4393V76.3063C66.1931 76.5632 66.2895 76.7879 66.4661 76.9806C66.6587 77.1732 66.8674 77.2535 67.1404 77.2535H68.9545V75.4393Z" fill="#333333"/>
<path d="M71.7158 74.4921H68.9544V77.2535H70.7686C71.0254 77.2535 71.2502 77.1572 71.4429 76.9806C71.6355 76.7879 71.7158 76.5792 71.7158 76.3063V74.4921Z" fill="#333333"/>
<path d="M77.2387 75.4393C77.2387 75.1825 77.1423 74.9577 76.9657 74.7651C76.7731 74.5724 76.5644 74.4921 76.2914 74.4921H75.4245C75.1676 74.4921 74.9429 74.5885 74.7502 74.7651C74.5575 74.9577 74.4773 75.1664 74.4773 75.4393V76.3063C74.4773 76.3063 74.4773 76.3384 74.4773 76.3705V77.2535H77.2387V76.3705C77.2387 76.3705 77.2387 76.3224 77.2387 76.3063V75.4393Z" fill="#333333"/>
<path d="M30.3432 78.2013V77.2541H28.5291C28.2722 77.2541 28.0474 77.3504 27.8548 77.527C27.6621 77.7197 27.5818 77.9284 27.5818 78.2013V79.0683C27.5818 79.3252 27.6782 79.5499 27.8548 79.7426C28.0474 79.9352 28.2561 80.0155 28.5291 80.0155H30.3432V78.2013Z" fill="#333333"/>
<path d="M32.1574 77.2381H30.3432V79.9995H32.1574C32.4142 79.9995 32.639 79.9032 32.8316 79.7266C33.0243 79.5339 33.1046 79.3252 33.1046 79.0523V78.1853C33.1046 77.9284 33.0082 77.7037 32.8316 77.511C32.639 77.3184 32.4303 77.2381 32.1574 77.2381Z" fill="#333333"/>
<path d="M44.134 79.0523C44.134 79.3091 44.0377 79.5339 43.8611 79.7266C43.6685 79.9192 43.4597 79.9995 43.1868 79.9995H42.3199C42.063 79.9995 41.8382 79.9032 41.6456 79.7266C41.4529 79.5339 41.3727 79.3252 41.3727 79.0523V78.1853C41.3727 77.9284 41.469 77.7037 41.6456 77.511C41.8382 77.3184 42.0469 77.2381 42.3199 77.2381H43.1868C43.4437 77.2381 43.6685 77.3344 43.8611 77.511C44.0538 77.7037 44.134 77.9124 44.134 78.1853V79.0523Z" fill="#333333"/>
<path d="M55.1635 79.0523C55.1635 79.3091 55.0672 79.5339 54.8906 79.7266C54.6979 79.9192 54.4892 79.9995 54.2163 79.9995H53.3493C53.0925 79.9995 52.8677 79.9032 52.6751 79.7266C52.4824 79.5339 52.4021 79.3252 52.4021 79.0523V78.1853C52.4021 77.9284 52.4985 77.7037 52.6751 77.511C52.8677 77.3184 53.0764 77.2381 53.3493 77.2381H54.2163C54.4732 77.2381 54.6979 77.3344 54.8906 77.511C55.0832 77.7037 55.1635 77.9124 55.1635 78.1853V79.0523Z" fill="#333333"/>
<path d="M63.4477 77.2381H60.6864V79.0523C60.6864 79.3091 60.7827 79.5339 60.9593 79.7266C61.1519 79.9192 61.3606 79.9995 61.6336 79.9995H63.4477V77.2381Z" fill="#333333"/>
<path d="M65.2459 77.2381H63.4317V79.9995H65.2459C65.5027 79.9995 65.7275 79.9032 65.9202 79.7266C66.1128 79.5339 66.1931 79.3252 66.1931 79.0523V78.1853C66.1931 77.9284 66.0968 77.7037 65.9202 77.511C65.7275 77.3184 65.5188 77.2381 65.2459 77.2381Z" fill="#333333"/>
<path d="M77.2226 78.1371V77.2541H74.4613V78.1371C74.4613 78.1371 74.4613 78.1853 74.4613 78.2013V79.0683C74.4613 79.3252 74.5576 79.5499 74.7342 79.7426C74.9268 79.9352 75.1355 80.0155 75.4085 80.0155H76.2754C76.5323 80.0155 76.7571 79.9192 76.9497 79.7426C77.1424 79.5499 77.2226 79.3412 77.2226 79.0683V78.2013C77.2226 78.2013 77.2226 78.1692 77.2226 78.1371Z" fill="#333333"/>
<path d="M12.7955 0H0V12.7178C0.0160546 16.3629 2.93799 19.3175 6.53422 19.3175H19.3137V6.59976C19.3137 2.95464 16.3917 0 12.7955 0ZM16.4238 16.4111H6.53422C4.52739 16.4111 2.90588 14.7571 2.90588 12.7178V2.90646H12.7955C14.7863 2.90646 16.4238 4.56042 16.4238 6.59976V16.4111Z" fill="#333333"/>
<path d="M67.2045 0C63.6083 0 60.6864 2.95464 60.6864 6.59976V19.3175H73.4819C77.0781 19.3175 80 16.3629 80 12.7338V0H67.2045ZM77.0941 12.7338C77.0941 14.7732 75.4726 16.4111 73.4819 16.4111H63.5762V6.59976C63.5922 4.56042 65.1977 2.89041 67.2045 2.89041H77.0941V12.7338Z" fill="#333333"/>
<path d="M6.53418 60.6985C2.93796 60.6985 0.0160217 63.6532 0.0160217 67.2822V80H12.7955C16.3917 80 19.3136 77.0454 19.3136 73.4163V60.6985H6.53418ZM16.4238 73.4163C16.4238 75.4557 14.7862 77.1096 12.7955 77.1096H2.90585V67.2822C2.90585 65.2429 4.52736 63.5889 6.53418 63.5889H16.4238V73.4163Z" fill="#333333"/>
<path d="M13.807 13.7937H7.77048C7.57783 13.7937 7.40123 13.7776 7.20857 13.7294C6.82326 13.617 6.47006 13.4083 6.18108 13.1192C6.13292 13.0711 6.08475 13.0229 6.03659 12.9587C5.7155 12.5733 5.52284 12.0594 5.52284 11.5135V5.5239H11.5433C12.7795 5.5239 13.791 6.5516 13.791 7.8041V13.7937H13.807Z" fill="#333333"/>
<path d="M74.4773 5.5239V7.8041L74.4612 11.5135C74.4612 12.766 73.4658 13.7937 72.2136 13.7937H66.2091V7.8041C66.2091 7.25814 66.4018 6.74429 66.7229 6.3589C66.7711 6.29467 66.8192 6.2465 66.8674 6.18227C67.1403 5.90928 67.4935 5.70053 67.8949 5.58813C68.0715 5.53995 68.2641 5.5239 68.4568 5.5239H74.4773Z" fill="#333333"/>
<path d="M13.807 66.2063V68.5026L13.791 72.1959C13.791 73.4645 12.7795 74.4922 11.5433 74.4922H5.52284V68.5026C5.52284 67.9406 5.7155 67.4428 6.03659 67.0413C6.08475 66.9932 6.13292 66.9289 6.18108 66.8808C6.47006 66.5917 6.82326 66.383 7.20857 66.2866C7.40123 66.2384 7.57783 66.2063 7.77048 66.2063H13.807Z" fill="#333333"/>
<path d="M39.8956 42.4406C39.735 42.3443 39.5102 42.3121 39.2373 42.3603L36.8773 42.7136C36.8773 42.7136 36.9415 42.5851 36.9897 42.5209C37.1342 42.28 37.4231 41.9267 37.8406 41.4611C38.274 40.9954 38.5791 40.6421 38.7557 40.4334C38.9323 40.2086 39.1089 39.9195 39.2694 39.5502C39.43 39.1809 39.4781 38.7794 39.4139 38.3619C39.3818 38.0889 39.2855 37.8481 39.141 37.6072C39.0126 37.3824 38.836 37.1736 38.6272 37.0131C38.4185 36.8525 38.1938 36.724 37.9369 36.6598C37.5516 36.5474 37.1021 36.5313 36.6044 36.6116C36.1869 36.6758 35.8177 36.7882 35.5287 36.9649C35.2237 37.1415 34.9989 37.3503 34.8223 37.5751C34.6457 37.8159 34.5173 38.0729 34.453 38.3298C34.3888 38.6028 34.3728 38.8597 34.4049 39.0845C34.437 39.2933 34.5173 39.4538 34.6618 39.5662C34.8063 39.6787 34.9668 39.7108 35.1595 39.6787C35.3682 39.6465 35.5287 39.5502 35.625 39.3896C35.7053 39.2451 35.7695 39.0524 35.8177 38.8276C35.8659 38.5386 35.898 38.4583 35.914 38.4261C36.0906 38.0408 36.3635 37.832 36.7649 37.7678C36.9415 37.7357 37.1342 37.7678 37.2947 37.8159C37.4553 37.8802 37.5997 37.9765 37.7121 38.105C37.8245 38.2335 37.8887 38.4101 37.9208 38.5867C37.953 38.7634 37.9208 38.9561 37.8727 39.1487C37.8085 39.3575 37.7121 39.5663 37.5676 39.7589C37.4231 39.9677 37.2305 40.1925 37.0057 40.4013C36.8612 40.5297 36.6525 40.7706 36.3475 41.156C36.0425 41.5253 35.7053 41.9749 35.3521 42.4888C35.2558 42.6172 35.1755 42.7939 35.1273 43.0187C35.0631 43.2435 35.0471 43.4041 35.0631 43.5486C35.0952 43.7573 35.1916 43.9179 35.3682 44.0464C35.4966 44.1427 35.6732 44.1909 35.8498 44.1909C35.914 44.1909 35.9622 44.1909 36.0264 44.1909L39.6066 43.661C39.8474 43.6289 40.024 43.5325 40.1203 43.388C40.2166 43.2435 40.2648 43.0829 40.2327 42.8902C40.2006 42.6815 40.1043 42.5209 39.9277 42.4245L39.8956 42.4406Z" fill="#333333"/>
<path d="M46.0926 40.4978C46.0605 40.2248 45.932 40.0642 45.7394 40.0161C45.5628 39.9679 45.3541 39.9679 45.0811 40.0161H44.9688L44.4229 36.3709C44.3747 36.0658 44.2784 35.841 44.1179 35.7126C43.9573 35.5681 43.7326 35.5199 43.4596 35.5681C43.283 35.6002 43.1385 35.6805 43.0261 35.8089C42.9298 35.9374 42.8174 36.114 42.6729 36.3709L40.618 40.1927C40.5537 40.3051 40.5056 40.3854 40.4735 40.4657C40.4414 40.546 40.3932 40.6102 40.3611 40.6905C40.329 40.7708 40.2969 40.8511 40.2808 40.9314C40.2808 41.0117 40.2648 41.0759 40.2808 41.1562C40.3129 41.4292 40.4414 41.6218 40.634 41.7503C40.8267 41.8788 41.0996 41.9269 41.4207 41.8627L43.7647 41.5094L43.8931 42.3284C43.9252 42.5853 44.0215 42.7941 44.1821 42.9065C44.3105 43.0028 44.439 43.051 44.5995 43.051C44.6316 43.051 44.6798 43.051 44.7119 43.051C44.9206 43.0189 45.0811 42.9225 45.1935 42.762C45.3059 42.6014 45.338 42.3926 45.2898 42.1196L45.1614 41.3007L45.3701 41.2686C45.643 41.2365 45.8357 41.1562 45.9481 41.0277C46.0765 40.8992 46.1247 40.7226 46.0926 40.5139V40.4978ZM43.572 40.2248L41.7578 40.4978L43.2028 37.784L43.572 40.2409V40.2248Z" fill="#333333"/>
<path d="M49.4963 38.587C49.3518 37.8001 49.1109 37.0294 48.7899 36.2907C47.3289 32.9988 43.8611 30.7668 40.297 30.7668C39.9438 30.7668 39.5906 30.7829 39.2213 30.831C37.6961 30.9916 36.2191 31.5697 34.9829 32.4368C34.9348 32.4689 34.9347 32.4689 34.8866 32.501C34.6458 32.774 34.5173 33.0952 34.5976 33.4806C34.6779 33.8499 34.6297 34.1871 34.421 34.4922C34.2765 34.717 34.0999 34.9579 33.8912 35.1345C33.4417 35.5199 32.366 36.387 31.6917 36.933C31.3546 37.206 31.1138 37.3987 31.1138 37.3987H30.8408L30.905 37.1739L31.2261 36.8527L33.4096 34.6207C33.4096 34.6207 33.5219 34.5243 33.5541 34.4601C33.5541 34.444 33.5541 34.4119 33.5541 34.3638C33.5541 34.2674 33.4738 34.1871 33.3775 34.1871C33.3775 34.1871 33.3132 34.1871 33.2811 34.1871C33.2811 34.1871 33.2651 34.1871 33.249 34.1871C33.2169 34.2032 33.2009 34.2514 33.1687 34.2835C32.35 35.0864 30.7124 36.66 30.6321 36.7243L30.311 36.8527L30.3752 36.6921L30.4395 36.5476C30.4395 36.5476 32.077 34.7973 32.8798 33.9141C32.8798 33.9141 32.8798 33.9141 32.8958 33.882C32.944 33.7696 32.8477 33.6412 32.7353 33.6412C32.7192 33.6412 32.6871 33.6412 32.6711 33.6412C32.6711 33.6412 32.655 33.6412 32.6389 33.6572C31.772 34.4762 30.0542 36.1462 30.0542 36.1462L29.7331 36.2746L29.8454 35.9535C29.8454 35.9535 31.4348 34.2353 32.2376 33.3842C32.2697 33.3361 32.3339 33.3039 32.35 33.2558C32.35 33.2236 32.35 33.1915 32.35 33.1594C32.35 33.0631 32.2697 32.9828 32.1734 32.9828C32.1734 32.9828 32.1091 32.9828 32.0931 32.9828C32.0289 32.9988 31.9968 33.0791 31.9486 33.1273L29.4441 35.6644L29.2033 35.7287V35.4557C29.2033 35.4557 30.8569 33.32 31.4348 32.6295C31.6114 32.4208 31.8362 32.2441 32.061 32.0996C32.2697 31.9551 32.5105 31.8748 32.7674 31.8748C32.8637 31.8748 32.96 31.8748 33.0564 31.9069C33.1366 31.9069 33.2009 31.923 33.2651 31.923C33.4096 31.923 33.538 31.8909 33.6504 31.8427C33.8591 31.6821 34.0839 31.5376 34.3086 31.3931C35.9462 30.3493 37.7925 29.8676 39.5906 29.8676C43.524 29.8676 47.361 32.1799 48.8701 36.1462C49.1591 36.9009 49.3518 37.6877 49.4481 38.4906L49.4963 38.587Z" fill="#333333"/>
<path d="M50.1223 44.4641C50.1384 44.9298 49.9939 45.3634 49.7852 45.7648C49.2714 46.7283 48.5168 47.4669 47.5054 47.8844C47.2806 47.9808 47.0238 48.0129 46.7829 48.0129C46.7508 48.0129 46.7187 48.0129 46.6866 48.0129C46.6706 48.0129 46.6545 48.0129 46.6224 48.0129C46.51 48.0129 46.4137 48.0129 46.3174 48.045C46.0765 48.2217 45.8357 48.3662 45.5949 48.5268L45.4344 48.6231L45.1775 48.7676C43.6362 49.6347 41.9666 50.0522 40.2969 50.0522C36.3635 50.0522 32.5265 47.7399 31.0173 43.7736C30.7284 43.0189 30.5357 42.216 30.4394 41.4292C30.5839 42.216 30.8247 42.9868 31.1618 43.7255C32.6228 47.0173 36.0906 49.2494 39.6547 49.2494C40.0079 49.2494 40.3772 49.2333 40.7304 49.1851C42.2556 49.0085 43.7326 48.4143 44.6316 47.8042C44.6798 47.772 44.7119 47.756 44.7601 47.7239C44.7761 47.7239 44.7922 47.7078 44.8082 47.6917C44.9206 47.6275 45.0169 47.5633 45.1133 47.483C45.3059 47.2582 45.4023 46.9852 45.3862 46.664C45.3541 46.1341 45.5789 45.6845 45.8839 45.2831C46.4779 44.4962 47.2004 43.87 48.1476 43.5649C48.4366 43.4685 48.7416 43.4364 49.0306 43.4364H49.0788C49.6728 43.4364 50.0741 43.87 50.0902 44.4641H50.1223Z" fill="#333333"/>
<path d="M38.1938 48.7516C38.6754 48.8319 39.157 48.88 39.6547 48.88C39.9919 48.88 40.3451 48.864 40.6822 48.8158C42.2235 48.6392 43.6202 48.0129 44.4229 47.4991C44.4229 47.4991 44.4229 47.4991 44.439 47.4991C44.4551 47.4991 44.4711 47.483 44.5032 47.4669C44.5193 47.4669 44.5514 47.4509 44.5674 47.4348C44.5674 47.4348 44.5674 47.4348 44.5835 47.4348C44.5835 47.4348 44.5995 47.4348 44.6156 47.4188C44.7119 47.3545 44.7922 47.3064 44.8725 47.2582C44.9849 47.1137 45.033 46.937 45.033 46.7443C45.0009 46.0378 45.3381 45.4758 45.611 45.1225C46.3013 44.1911 47.1041 43.5809 48.0673 43.2759C48.1476 43.2437 48.2279 43.2277 48.3242 43.2116C48.854 41.8306 49.0306 40.3052 48.8058 38.7475C48.4526 36.387 47.2004 34.3156 45.2899 32.9025C44.2945 32.1638 43.1867 31.65 42.0308 31.377C41.4689 31.2646 40.8909 31.2004 40.313 31.2004C39.9758 31.2004 39.6226 31.2164 39.2855 31.2646C37.8245 31.4252 36.4117 31.9551 35.2237 32.8062C35.2076 32.8062 35.1916 32.8222 35.1916 32.8383C35.1916 32.8383 35.1916 32.8383 35.1755 32.8383C35.015 33.031 34.9507 33.2397 34.9989 33.4485C35.0952 33.9141 35.031 34.3638 34.7741 34.7331C34.6296 34.9579 34.437 35.2309 34.1801 35.4557C33.7627 35.825 32.7352 36.644 31.9806 37.2542C31.6756 37.5111 31.4508 37.6877 31.4027 37.7198C31.0976 38.876 31.0013 40.1125 31.194 41.365C31.7559 45.1707 34.6778 48.0611 38.2419 48.7837L38.1938 48.7516ZM38.9483 33.1273C39.3015 33.0791 39.6387 33.047 39.9919 33.047C41.4689 33.047 42.8978 33.5127 44.1179 34.4119C45.611 35.5199 46.5903 37.1418 46.8632 38.9724C47.4252 42.762 44.8083 46.3108 41.0194 46.8728C40.6662 46.921 40.329 46.9531 39.9919 46.9531C36.6044 46.9531 33.6343 44.4641 33.1205 41.0278C32.5586 37.2381 35.1755 33.6893 38.9644 33.1273H38.9483Z" fill="#333333"/>
</g>
<defs>
<clipPath id="clip0_196_957">
<rect width="80" height="80" fill="white"/>
</clipPath>
</defs>
</svg>
