<svg width="25" height="25" viewBox="0 0 25 25" fill="none" xmlns="http://www.w3.org/2000/svg">
<path d="M17.561 14.8866C16.2393 14.7665 15.5184 16.5692 14.5572 17.0499C12.9952 17.8912 10.1115 14.8866 10.1115 14.8866C10.1115 14.8866 7.10761 12.0023 7.82854 10.4399C8.42931 9.47845 10.2316 8.75736 10.1115 7.43536C9.99132 6.23354 7.34792 1.90699 6.02622 3.10881C3.14252 5.75281 2.90221 6.83445 2.90221 8.99773C2.78206 12.7234 7.58823 17.4105 7.58823 17.4105C8.06885 17.8912 12.2743 22.2178 15.999 22.0976C18.1618 22.0976 19.2432 21.8572 21.8866 18.9728C23.0881 17.6508 18.8827 15.0068 17.561 14.8866Z" fill="#333333"/>
</svg>
