<svg width="21" height="20" viewBox="0 0 21 20" fill="none" xmlns="http://www.w3.org/2000/svg">
<path d="M17.2812 0C17.8204 4.31832e-05 18.3414 0.193273 18.7485 0.544172C19.1556 0.895072 19.4215 1.38006 19.4973 1.91L19.5163 2.08333L20.4956 17.6389C20.5326 18.2226 20.3363 18.7972 19.9493 19.2382C19.5623 19.6791 19.0159 19.9509 18.4284 19.9944L18.2605 20H2.73839C2.14936 20 1.58405 19.7696 1.16503 19.3586C0.746016 18.9476 0.507068 18.3892 0.5 17.8044L0.503358 17.6389L1.48266 2.08333C1.51634 1.54897 1.74321 1.04464 2.12157 0.663096C2.49993 0.281554 3.00432 0.0484546 3.54198 0.00666671L3.71657 0H17.2812ZM17.2812 2.22222H3.71657L2.73728 17.7778H18.2605L17.2824 2.22222H17.2812ZM13.8565 4.44444C14.1533 4.44444 14.438 4.56151 14.6479 4.76988C14.8578 4.97826 14.9757 5.26087 14.9757 5.55556C14.9757 6.7343 14.504 7.86476 13.6645 8.69825C12.8249 9.53175 11.6862 10 10.4989 10C9.31159 10 8.1729 9.53175 7.33334 8.69825C6.49378 7.86476 6.02212 6.7343 6.02212 5.55556C6.02212 5.26087 6.14004 4.97826 6.34993 4.76988C6.55982 4.56151 6.84449 4.44444 7.14132 4.44444C7.43815 4.44444 7.72282 4.56151 7.93271 4.76988C8.1426 4.97826 8.26052 5.26087 8.26052 5.55556C8.25792 6.1322 8.48121 6.68727 8.88321 7.1035C9.28522 7.51973 9.83446 7.76452 10.4149 7.78616C10.9953 7.80779 11.5615 7.60458 11.9938 7.21945C12.4262 6.83432 12.6907 6.29744 12.7317 5.72222L12.7373 5.55556C12.7373 5.26087 12.8552 4.97826 13.0651 4.76988C13.275 4.56151 13.5597 4.44444 13.8565 4.44444Z" fill="#333333"/>
</svg>
