<svg width="14" height="16" viewBox="0 0 14 16" fill="none" xmlns="http://www.w3.org/2000/svg">
<path d="M9.84445 9.44H4.15556C3.96696 9.44 3.78609 9.51586 3.65273 9.65089C3.51937 9.78591 3.44445 9.96905 3.44445 10.16C3.44445 10.351 3.51937 10.5341 3.65273 10.6691C3.78609 10.8041 3.96696 10.88 4.15556 10.88H9.84445C10.033 10.88 10.2139 10.8041 10.3473 10.6691C10.4806 10.5341 10.5556 10.351 10.5556 10.16C10.5556 9.96905 10.4806 9.78591 10.3473 9.65089C10.2139 9.51586 10.033 9.44 9.84445 9.44ZM9.84445 6.56H5.57778C5.38919 6.56 5.20831 6.63586 5.07495 6.77089C4.94159 6.90591 4.86667 7.08905 4.86667 7.28C4.86667 7.47096 4.94159 7.65409 5.07495 7.78912C5.20831 7.92415 5.38919 8 5.57778 8H9.84445C10.033 8 10.2139 7.92415 10.3473 7.78912C10.4806 7.65409 10.5556 7.47096 10.5556 7.28C10.5556 7.08905 10.4806 6.90591 10.3473 6.77089C10.2139 6.63586 10.033 6.56 9.84445 6.56ZM12.6889 2.24H10.5556V1.52C10.5556 1.32905 10.4806 1.14591 10.3473 1.01089C10.2139 0.87586 10.033 0.800003 9.84445 0.800003C9.65585 0.800003 9.47498 0.87586 9.34162 1.01089C9.20826 1.14591 9.13334 1.32905 9.13334 1.52V2.24H7.71112V1.52C7.71112 1.32905 7.6362 1.14591 7.50284 1.01089C7.36948 0.87586 7.1886 0.800003 7.00001 0.800003C6.81141 0.800003 6.63053 0.87586 6.49717 1.01089C6.36382 1.14591 6.28889 1.32905 6.28889 1.52V2.24H4.86667V1.52C4.86667 1.32905 4.79175 1.14591 4.65839 1.01089C4.52503 0.87586 4.34416 0.800003 4.15556 0.800003C3.96696 0.800003 3.78609 0.87586 3.65273 1.01089C3.51937 1.14591 3.44445 1.32905 3.44445 1.52V2.24H1.31112C1.12252 2.24 0.941645 2.31586 0.808286 2.45089C0.674926 2.58591 0.600006 2.76905 0.600006 2.96V13.04C0.600006 13.6129 0.824767 14.1623 1.22485 14.5674C1.62492 14.9724 2.16754 15.2 2.73334 15.2H11.2667C11.8325 15.2 12.3751 14.9724 12.7752 14.5674C13.1752 14.1623 13.4 13.6129 13.4 13.04V2.96C13.4 2.76905 13.3251 2.58591 13.1917 2.45089C13.0584 2.31586 12.8775 2.24 12.6889 2.24ZM11.9778 13.04C11.9778 13.231 11.9029 13.4141 11.7695 13.5491C11.6361 13.6841 11.4553 13.76 11.2667 13.76H2.73334C2.54474 13.76 2.36387 13.6841 2.23051 13.5491C2.09715 13.4141 2.02223 13.231 2.02223 13.04V3.68H3.44445V4.4C3.44445 4.59096 3.51937 4.77409 3.65273 4.90912C3.78609 5.04415 3.96696 5.12 4.15556 5.12C4.34416 5.12 4.52503 5.04415 4.65839 4.90912C4.79175 4.77409 4.86667 4.59096 4.86667 4.4V3.68H6.28889V4.4C6.28889 4.59096 6.36382 4.77409 6.49717 4.90912C6.63053 5.04415 6.81141 5.12 7.00001 5.12C7.1886 5.12 7.36948 5.04415 7.50284 4.90912C7.6362 4.77409 7.71112 4.59096 7.71112 4.4V3.68H9.13334V4.4C9.13334 4.59096 9.20826 4.77409 9.34162 4.90912C9.47498 5.04415 9.65585 5.12 9.84445 5.12C10.033 5.12 10.2139 5.04415 10.3473 4.90912C10.4806 4.77409 10.5556 4.59096 10.5556 4.4V3.68H11.9778V13.04Z" fill="#333333"/>
</svg>
